<svg width="14" height="15" viewBox="0 0 14 15" fill="none" xmlns="http://www.w3.org/2000/svg">
<path d="M10.5535 7.01802C10.8473 7.01802 11.0855 6.77863 11.0855 6.48332C11.0855 6.18801 10.8473 5.94861 10.5535 5.94861C10.2597 5.94861 10.0215 6.18801 10.0215 6.48332C10.0215 6.77863 10.2597 7.01802 10.5535 7.01802Z" fill="#FFB83B"/>
<path d="M11.777 1.93831H11.0854V1.4036C11.0854 1.10829 10.8472 0.868896 10.5534 0.868896C10.2595 0.868896 10.0213 1.10829 10.0213 1.4036V1.93831H7.60059V1.4036C7.60059 1.10829 7.3624 0.868896 7.06855 0.868896C6.77471 0.868896 6.53652 1.10829 6.53652 1.4036V1.93831H4.14238V1.4036C4.14238 1.10829 3.90419 0.868896 3.61035 0.868896C3.31651 0.868896 3.07832 1.10829 3.07832 1.4036V1.93831H2.41328C1.23983 1.93831 0.285156 2.89779 0.285156 4.07714V12.4186C0.285156 13.5979 1.23983 14.5574 2.41328 14.5574H6.48332C6.77716 14.5574 7.01535 14.318 7.01535 14.0227C7.01535 13.7274 6.77716 13.488 6.48332 13.488H2.41328C1.82656 13.488 1.34922 13.0083 1.34922 12.4186V4.07714C1.34922 3.48747 1.82656 3.00773 2.41328 3.00773H3.07832V3.54244C3.07832 3.83776 3.31651 4.07714 3.61035 4.07714C3.90419 4.07714 4.14238 3.83776 4.14238 3.54244V3.00773H6.53652V3.54244C6.53652 3.83776 6.77471 4.07714 7.06855 4.07714C7.3624 4.07714 7.60059 3.83776 7.60059 3.54244V3.00773H10.0213V3.54244C10.0213 3.83776 10.2595 4.07714 10.5534 4.07714C10.8472 4.07714 11.0854 3.83776 11.0854 3.54244V3.00773H11.777C12.3638 3.00773 12.8411 3.48747 12.8411 4.07714V7.12498C12.8411 7.4203 13.0793 7.65969 13.3731 7.65969C13.667 7.65969 13.9052 7.4203 13.9052 7.12498V4.07714C13.9052 2.89779 12.9505 1.93831 11.777 1.93831Z" fill="#FFB83B"/>
<path d="M10.6856 8.0874C8.91073 8.0874 7.4668 9.5386 7.4668 11.3224C7.4668 13.1062 8.91073 14.5574 10.6856 14.5574C12.4604 14.5574 13.9044 13.1062 13.9044 11.3224C13.9044 9.5386 12.4604 8.0874 10.6856 8.0874ZM10.6856 13.488C9.49748 13.488 8.53086 12.5165 8.53086 11.3224C8.53086 10.1283 9.49748 9.15682 10.6856 9.15682C11.8737 9.15682 12.8403 10.1283 12.8403 11.3224C12.8403 12.5165 11.8737 13.488 10.6856 13.488Z" fill="#FFB83B"/>
<path d="M11.4578 10.7877H11.2184V10.2262C11.2184 9.93092 10.9802 9.69153 10.6863 9.69153C10.3925 9.69153 10.1543 9.93092 10.1543 10.2262V11.3224C10.1543 11.6177 10.3925 11.8571 10.6863 11.8571H11.4578C11.7516 11.8571 11.9898 11.6177 11.9898 11.3224C11.9898 11.0271 11.7516 10.7877 11.4578 10.7877Z" fill="#FFB83B"/>
<path d="M8.23906 7.01802C8.5329 7.01802 8.77109 6.77863 8.77109 6.48332C8.77109 6.18801 8.5329 5.94861 8.23906 5.94861C7.94523 5.94861 7.70703 6.18801 7.70703 6.48332C7.70703 6.77863 7.94523 7.01802 8.23906 7.01802Z" fill="#FFB83B"/>
<path d="M5.92461 9.34407C6.21844 9.34407 6.45664 9.10468 6.45664 8.80937C6.45664 8.51406 6.21844 8.27466 5.92461 8.27466C5.63078 8.27466 5.39258 8.51406 5.39258 8.80937C5.39258 9.10468 5.63078 9.34407 5.92461 9.34407Z" fill="#FFB83B"/>
<path d="M3.61016 7.01802C3.90399 7.01802 4.14219 6.77863 4.14219 6.48332C4.14219 6.18801 3.90399 5.94861 3.61016 5.94861C3.31632 5.94861 3.07812 6.18801 3.07812 6.48332C3.07812 6.77863 3.31632 7.01802 3.61016 7.01802Z" fill="#FFB83B"/>
<path d="M3.61016 9.34407C3.90399 9.34407 4.14219 9.10468 4.14219 8.80937C4.14219 8.51406 3.90399 8.27466 3.61016 8.27466C3.31632 8.27466 3.07812 8.51406 3.07812 8.80937C3.07812 9.10468 3.31632 9.34407 3.61016 9.34407Z" fill="#FFB83B"/>
<path d="M3.61016 11.67C3.90399 11.67 4.14219 11.4306 4.14219 11.1353C4.14219 10.84 3.90399 10.6006 3.61016 10.6006C3.31632 10.6006 3.07812 10.84 3.07812 11.1353C3.07812 11.4306 3.31632 11.67 3.61016 11.67Z" fill="#FFB83B"/>
<path d="M5.92461 11.67C6.21844 11.67 6.45664 11.4306 6.45664 11.1353C6.45664 10.84 6.21844 10.6006 5.92461 10.6006C5.63078 10.6006 5.39258 10.84 5.39258 11.1353C5.39258 11.4306 5.63078 11.67 5.92461 11.67Z" fill="#FFB83B"/>
<path d="M5.92461 7.01802C6.21844 7.01802 6.45664 6.77863 6.45664 6.48332C6.45664 6.18801 6.21844 5.94861 5.92461 5.94861C5.63078 5.94861 5.39258 6.18801 5.39258 6.48332C5.39258 6.77863 5.63078 7.01802 5.92461 7.01802Z" fill="#FFB83B"/>
</svg>
