<svg width="84" height="83" viewBox="0 0 84 83" fill="none" xmlns="http://www.w3.org/2000/svg">
<rect x="0.5" width="83" height="83" rx="41.5" fill="#FFB83B"/>
<g clip-path="url(#clip0_1440_750)">
<path d="M20.3809 38.2373H63.6196V58.8465H20.3809V38.2373Z" stroke="white" stroke-width="1.6" stroke-miterlimit="10" stroke-linecap="round" stroke-linejoin="round"/>
<path d="M20.3809 33.5136H63.6196M20.3809 33.5136V38.2373H63.6196V33.5136M20.3809 33.5136V20.6309M63.6196 33.5136V20.6309M34.7938 22.2207V33.5136M49.2067 22.2207V33.5136M20.5276 24.5268C23.2091 24.5268 23.2091 26.4748 25.8906 26.4748C28.5722 26.4748 28.5722 24.5268 31.2538 24.5268C33.9354 24.5268 33.9354 26.4748 36.617 26.4748C39.2985 26.4748 39.2985 24.5268 41.9799 24.5268C44.6615 24.5268 44.6615 26.4748 47.3431 26.4748C50.0248 26.4748 50.0248 24.5268 52.7064 24.5268C55.3882 24.5268 55.3882 26.4748 58.0701 26.4748C60.7518 26.4748 60.7518 24.5268 63.4337 24.5268M20.5276 20.6309C23.2091 20.6309 23.2091 22.5788 25.8906 22.5788C28.5722 22.5788 28.5722 20.6309 31.2538 20.6309C33.9354 20.6309 33.9354 22.5788 36.617 22.5788C39.2985 22.5788 39.2985 20.6309 41.9799 20.6309C44.6615 20.6309 44.6615 22.5788 47.3431 22.5788C50.0248 22.5788 50.0248 20.6309 52.7064 20.6309C55.3882 20.6309 55.3882 22.5788 58.0701 22.5788C60.7518 22.5788 60.7518 20.6309 63.4337 20.6309M20.5276 28.4227C23.2091 28.4227 23.2091 30.3707 25.8906 30.3707C28.5722 30.3707 28.5722 28.4227 31.2538 28.4227C33.9354 28.4227 33.9354 30.3707 36.617 30.3707C39.2985 30.3707 39.2985 28.4227 41.9799 28.4227C44.6615 28.4227 44.6615 30.3707 47.3431 30.3707C50.0248 30.3707 50.0248 28.4227 52.7064 28.4227C55.3882 28.4227 55.3882 30.3707 58.0701 30.3707C60.7518 30.3707 60.7518 28.4227 63.4337 28.4227M46.3272 62.369H21.2615C20.7751 62.369 20.3809 61.9748 20.3809 61.4884V58.8465H63.6196V61.4884C63.6196 61.9748 63.2253 62.369 62.739 62.369H45.9481M30.2991 46.4255C29.8127 46.4255 25.8156 46.4255 25.8156 46.4255C25.3292 46.4255 24.9349 46.0312 24.9349 45.5448V43.7836C24.9349 43.2972 25.3292 42.903 25.8156 42.903H30.2991C30.7855 42.903 31.1797 43.2972 31.1797 43.7836V45.5448C31.1797 46.0312 30.7855 46.4255 30.2991 46.4255ZM35.4535 54.2749H30.9699C30.4836 54.2749 30.0893 53.8806 30.0893 53.3943V51.633C30.0893 51.1466 30.4836 50.7524 30.9699 50.7524H35.4535C35.9398 50.7524 36.3341 51.1466 36.3341 51.633V53.3943C36.3341 53.8806 35.9398 54.2749 35.4535 54.2749ZM59.6967 47.3193H55.2131C54.7268 47.3193 54.3325 46.9251 54.3325 46.4387V44.6774C54.3325 44.1911 54.7268 43.7968 55.2131 43.7968H59.6967C60.183 43.7968 60.5773 44.1911 60.5773 44.6774V46.4387C60.5773 46.9251 60.183 47.3193 59.6967 47.3193ZM52.5567 54.8333H48.0732C47.5868 54.8333 47.1925 54.4391 47.1925 53.9527V52.1915C47.1925 51.7051 47.5868 51.3108 48.0732 51.3108H52.5567C53.0431 51.3108 53.4373 51.7051 53.4373 52.1915V53.9527C53.4373 54.439 53.0431 54.8333 52.5567 54.8333ZM42.8956 46.9839H38.412C37.9257 46.9839 37.5314 46.5896 37.5314 46.1033V44.342C37.5314 43.8557 37.9257 43.4614 38.412 43.4614H42.8956C43.3819 43.4614 43.7762 43.8557 43.7762 44.342V46.1033C43.7762 46.5896 43.3819 46.9839 42.8956 46.9839Z" stroke="white" stroke-width="1.6" stroke-miterlimit="10" stroke-linecap="round" stroke-linejoin="round"/>
</g>
<defs>
<clipPath id="clip0_1440_750">
<rect width="45" height="45" fill="white" transform="translate(19.5 19)"/>
</clipPath>
</defs>
</svg>
