<svg width="84" height="83" viewBox="0 0 84 83" fill="none" xmlns="http://www.w3.org/2000/svg">
<rect x="0.5" width="83" height="83" rx="41.5" fill="#FFB83B"/>
<path fill-rule="evenodd" clip-rule="evenodd" d="M41.6448 12.8367L41.9843 13.0164L47.1447 15.7484L47.5172 15.9456V16.3671V21.4304L51.2194 23.6049L51.5648 23.8078V24.2084V28.9895V29.3581L51.2609 29.5667L47.5373 32.1213L47.2284 32.3333L46.8807 32.1938L41.6868 30.1103L37.5223 32.1715L37.1717 32.345L36.8402 32.1374L32.762 29.5827L32.4336 29.377V28.9895V24.2084V23.8252L32.7565 23.6187L36.151 21.4478V16.3671V15.9598L36.5051 15.7585L41.3109 13.0265L41.6448 12.8367ZM41.6688 14.4335L37.551 16.7743V21.8311V22.2143L37.2282 22.4208L33.8336 24.5917V28.6019L37.2519 30.7432L41.3463 28.7167L41.6269 28.5779L41.9174 28.6944L47.0542 30.755L50.1648 28.6208V24.6091L46.4627 22.4347L46.1172 22.2317V21.8311V16.7885L41.6688 14.4335ZM41.6452 31.5685L41.9847 31.7483L47.1451 34.4803L47.5175 34.6775V35.0989V40.1623L51.2197 42.3367L51.5652 42.5396V42.9403V47.7213V48.09L51.2612 48.2985L47.5376 50.8532L47.2287 51.0652L46.881 50.9257L41.6871 48.8422L37.5226 50.9034L37.172 51.0769L36.8405 50.8692L32.7623 48.3145L32.4339 48.1088V47.7213V42.9403V42.5571L32.7568 42.3506L36.1514 40.1797V35.0989V34.6917L36.5054 34.4904L41.3112 31.7584L41.6452 31.5685ZM41.6691 33.1653L37.5514 35.5062V40.5629V40.9462L37.2285 41.1527L33.8339 43.3236V47.3338L37.2522 49.4751L41.3466 47.4486L41.6272 47.3097L41.9178 47.4263L47.0545 49.4869L50.1652 47.3527V43.341L46.463 41.1665L46.1175 40.9636V40.5629V35.5204L41.6691 33.1653ZM41.9845 50.8347L41.645 50.655L41.3111 50.8448L36.5053 53.5768L36.1512 53.7781V54.1854V59.2661L32.7567 61.437L32.4338 61.6435V62.0268V66.8078V67.1953L32.7622 67.401L36.8404 69.9557L37.1719 70.1633L37.5225 69.9898L41.687 67.9286L46.8809 70.0121L47.2286 70.1516L47.5375 69.9397L51.2611 67.385L51.565 67.1764V66.8078V62.0268V61.6261L51.2196 61.4232L47.5174 59.2487V54.1854V53.7639L47.1449 53.5667L41.9845 50.8347ZM37.5512 54.5926L41.669 52.2518L46.1174 54.6068V59.6494V60.05L46.4629 60.253L50.165 62.4274V66.4391L47.0544 68.5733L41.9176 66.5127L41.6271 66.3962L41.3465 66.535L37.2521 68.5616L33.8338 66.4203V62.41L37.2284 60.2391L37.5512 60.0326V59.6494V54.5926ZM24.6878 41.2571L25.0273 41.4368L30.1877 44.1688L30.5602 44.366V44.7875V49.8508L34.2623 52.0253L34.6078 52.2282V52.6289V57.4099V57.7785L34.3038 57.9871L30.5803 60.5418L30.2713 60.7537L29.9236 60.6142L24.7297 58.5307L20.5653 60.5919L20.2147 60.7654L19.8831 60.5578L15.805 58.0031L15.4766 57.7974V57.4099V52.6289V52.2456L15.7994 52.0391L19.194 49.8682V44.7875V44.3802L19.5481 44.1789L24.3538 41.4469L24.6878 41.2571ZM24.7118 42.8539L20.594 45.1947V50.2515V50.6347L20.2711 50.8412L16.8766 53.0121V57.0224L20.2948 59.1637L24.3893 57.1371L24.6699 56.9983L24.9604 57.1148L30.0972 59.1754L33.2078 57.0412V53.0295L29.5057 50.8551L29.1602 50.6522V50.2515V45.2089L24.7118 42.8539ZM58.9431 41.4368L58.6036 41.2571L58.2697 41.4469L53.4639 44.1789L53.1098 44.3802V44.7875V49.8682L49.7152 52.0391L49.3924 52.2456V52.6289V57.4099V57.7974L49.7208 58.0031L53.799 60.5578L54.1305 60.7654L54.4811 60.5919L58.6455 58.5307L63.8395 60.6142L64.1872 60.7537L64.4961 60.5418L68.2196 57.9871L68.5236 57.7785V57.4099V52.6289V52.2282L68.1781 52.0253L64.476 49.8508V44.7875V44.366L64.1035 44.1688L58.9431 41.4368ZM54.5098 45.1947L58.6276 42.8539L63.076 45.2089V50.2515V50.6522L63.4215 50.8551L67.1236 53.0295V57.0412L64.013 59.1754L58.8762 57.1148L58.5857 56.9983L58.3051 57.1371L54.2107 59.1637L50.7924 57.0224V53.0121L54.187 50.8412L54.5098 50.6347V50.2515V45.1947ZM24.6878 23.348L25.0273 23.5278L30.1877 26.2598L30.5602 26.457V26.8784V31.9418L34.2623 34.1162L34.6078 34.3191V34.7198V39.5008V39.8695L34.3038 40.078L30.5803 42.6327L30.2713 42.8446L29.9236 42.7052L24.7297 40.6217L20.5653 42.6829L20.2147 42.8564L19.8831 42.6487L15.805 40.094L15.4766 39.8883V39.5008V34.7198V34.3366L15.7994 34.1301L19.194 31.9592V26.8784V26.4712L19.5481 26.2699L24.3538 23.5379L24.6878 23.348ZM24.7118 24.9448L20.594 27.2857V32.3424V32.7257L20.2711 32.9321L16.8766 35.103V39.1133L20.2948 41.2546L24.3893 39.2281L24.6699 39.0892L24.9604 39.2058L30.0972 41.2663L33.2078 39.1322V35.1205L29.5057 32.946L29.1602 32.7431V32.3424V27.2999L24.7118 24.9448ZM58.9431 23.5278L58.6036 23.348L58.2697 23.5379L53.4639 26.2699L53.1098 26.4712V26.8784V31.9592L49.7152 34.1301L49.3924 34.3366V34.7198V39.5008V39.8883L49.7208 40.094L53.799 42.6487L54.1305 42.8564L54.4811 42.6829L58.6455 40.6217L63.8395 42.7052L64.1872 42.8446L64.4961 42.6327L68.2196 40.078L68.5236 39.8695V39.5008V34.7198V34.3191L68.1781 34.1162L64.476 31.9418V26.8784V26.457L64.1035 26.2598L58.9431 23.5278ZM54.5098 27.2857L58.6276 24.9448L63.076 27.2999V32.3424V32.7431L63.4215 32.946L67.1236 35.1205V39.1322L64.013 41.2663L58.8762 39.2058L58.5857 39.0892L58.3051 39.2281L54.2107 41.2546L50.7924 39.1133V35.103L54.187 32.9321L54.5098 32.7257V32.3424V27.2857Z" fill="white"/>
</svg>
