<svg width="84" height="84" viewBox="0 0 84 84" fill="none" xmlns="http://www.w3.org/2000/svg">
<rect x="0.5" y="0.647705" width="83" height="83" rx="41.5" fill="#FFB83B"/>
<path fill-rule="evenodd" clip-rule="evenodd" d="M35.4715 21.1477V27.7111H32.4082V29.3111H35.4715V33.3635H37.0715V29.3111L46.3965 29.3111V39.9272H39.7754V41.5272H46.3965V49.437H47.9965V41.5272H57.328V49.437H58.928V41.5272H62.9208V39.9272H58.928V29.3111H61.9829L61.9829 27.7111H58.928V21.1477H57.328V27.7111L47.9965 27.7111V21.1477H46.3965V27.7111L37.0715 27.7111V21.1477H35.4715ZM57.328 29.3111L47.9965 29.3111V39.9272H57.328V29.3111ZM20.8361 25.1394H20.0361V25.9394V62.9385V63.7385H20.8361H61.9836H62.7836V62.9385V51.6569V50.8569H61.9836H44.8846L38.3523 46.106V35.5834V34.7834H37.5523H31.923V25.9394V25.1394H31.123H20.8361ZM21.6361 62.1385V26.7394H30.323V35.5834V36.3834H31.123H36.7523V46.5134V46.9208L37.0817 47.1604L44.154 52.3039L44.3643 52.4569H44.6245H61.1836V62.1385H21.6361Z" fill="white"/>
</svg>
