<svg width="84" height="83" viewBox="0 0 84 83" fill="none" xmlns="http://www.w3.org/2000/svg">
<rect x="0.5" width="83" height="83" rx="41.5" fill="#FFB83B"/>
<path d="M50.133 50.4226V44.7475C50.1318 44.6442 50.111 44.5421 50.0716 44.4466L46.8225 36.3209C46.6512 35.8356 46.4023 35.3814 46.0855 34.9758C45.9233 34.7671 45.7216 34.5925 45.4918 34.4618C45.2621 34.3311 45.0089 34.247 44.7466 34.2142L45.2072 32.82C45.4959 31.9602 45.8276 31.2539 47.0959 30.5138L54.4814 25.846C54.5733 25.79 54.6528 25.716 54.7153 25.6285C54.7777 25.5409 54.8217 25.4416 54.8447 25.3365C54.8676 25.2315 54.8691 25.1228 54.8489 25.0172C54.8287 24.9116 54.7872 24.8112 54.7271 24.722C54.6703 24.6328 54.5964 24.5557 54.5098 24.4951C54.4232 24.4345 54.3254 24.3916 54.2222 24.3687C54.1189 24.3459 54.0122 24.3437 53.9081 24.3621C53.804 24.3806 53.7045 24.4194 53.6154 24.4763L46.2636 29.1165C45.0226 29.8086 44.0931 30.949 43.6656 32.3041L43.0392 34.1866H36.6516L37.7111 31.2109C38.2332 29.7522 39.2711 28.2444 40.6991 27.6179L55.3689 21.6173C55.3874 21.6756 55.3996 21.7309 55.4211 21.7893L62.211 40.5526L55.1632 49.9497C55.0735 50.0704 55.0191 50.2135 55.0058 50.3633C54.9926 50.5131 55.0212 50.6636 55.0883 50.7981C55.1554 50.9327 55.2585 51.046 55.3861 51.1255C55.5137 51.2051 55.6608 51.2477 55.8111 51.2487H60.6878C63.8263 51.2487 66.3721 48.6998 66.3721 45.5644V43.9368C66.3721 42.8558 64.7475 42.8558 64.7475 43.9368V45.5644C64.7475 47.8277 62.9541 49.6241 60.6878 49.6241H57.4418L63.5315 41.5015H65.5644C66.0742 41.4985 66.455 41.0348 66.3628 40.5342L62.4812 19.8914C62.1434 18.098 60.3745 16.8574 58.3969 17.1583C56.6986 17.4193 55.676 18.6324 55.3505 19.8699L40.0573 26.1254C38.0366 27.0098 36.8082 28.9077 36.1818 30.6642L34.9258 34.1866H34.6924C33.2183 34.1866 32.5581 35.3474 32.2725 36.4806L30.8015 42.3092H20.0625C19.4173 42.3124 18.7995 42.5699 18.343 43.0258C17.8865 43.4818 17.6282 44.0993 17.6242 44.7444V50.4379C17.6242 51.7738 18.7297 52.8701 20.0625 52.8701H22.4977V54.5622C19.7462 54.9614 17.6211 57.326 17.6211 60.182C17.6211 63.3205 20.1761 65.8693 23.3146 65.8693H48.4993C49.9844 65.8348 51.397 65.2206 52.4351 64.1581C53.4733 63.0956 54.0545 61.669 54.0545 60.1835C54.0545 58.698 53.4733 57.2715 52.4351 56.209C51.397 55.1464 49.9844 54.5322 48.4993 54.4977H47.6885V52.8701C48.0104 52.8713 48.3293 52.8087 48.6269 52.6859C48.9244 52.5631 49.1946 52.3826 49.4219 52.1547C49.6493 51.9268 49.8291 51.6561 49.9512 51.3583C50.0732 51.0605 50.135 50.7444 50.133 50.4226ZM60.8812 20.1893L64.5817 39.874H63.6942L56.9505 21.2334C56.5881 20.2415 57.319 19.0039 58.6118 18.7828C59.7174 18.5894 60.7062 19.2742 60.8812 20.1893ZM59.0633 20.3736C58.9564 20.3736 58.8506 20.3946 58.7518 20.4355C58.6531 20.4764 58.5634 20.5364 58.4878 20.6119C58.4122 20.6875 58.3523 20.7772 58.3114 20.8759C58.2705 20.9747 58.2495 21.0805 58.2495 21.1874C58.2495 21.2942 58.2705 21.4001 58.3114 21.4988C58.3523 21.5975 58.4122 21.6872 58.4878 21.7628C58.5634 21.8384 58.6531 21.8983 58.7518 21.9392C58.8506 21.9801 58.9564 22.0012 59.0633 22.0012C59.2791 22.0012 59.4861 21.9154 59.6387 21.7628C59.7913 21.6102 59.877 21.4032 59.877 21.1874C59.877 20.9715 59.7913 20.7645 59.6387 20.6119C59.4861 20.4593 59.2791 20.3736 59.0633 20.3736ZM47.6885 51.2487H20.0625C19.9553 51.2516 19.8487 51.2327 19.7491 51.1933C19.6494 51.1538 19.5588 51.0945 19.4827 51.019C19.4066 50.9435 19.3467 50.8534 19.3064 50.754C19.2662 50.6547 19.2466 50.5482 19.2487 50.441V44.7475C19.2487 44.2838 19.5988 43.9399 20.0625 43.9399H31.4464C31.628 43.9397 31.8043 43.8789 31.9473 43.7671C32.0903 43.6552 32.1918 43.4988 32.2356 43.3226L33.8663 36.7692C34.0198 36.1551 34.2348 35.8111 34.6954 35.8111H44.4487C44.6637 35.8111 44.6975 35.848 44.8449 36.0199C44.9892 36.195 45.1581 36.5297 45.3178 36.9259L48.5085 44.9041V50.4502C48.5098 50.557 48.4894 50.6629 48.4486 50.7616C48.4078 50.8603 48.3473 50.9497 48.271 51.0243C48.1946 51.099 48.1039 51.1573 48.0043 51.1959C47.9047 51.2345 47.7953 51.2524 47.6885 51.2487ZM36.3169 37.4356C35.9484 37.4356 35.6259 37.6844 35.5307 38.0406L34.2317 42.9111C34.1987 43.0317 34.1939 43.1583 34.2177 43.2811C34.2416 43.4038 34.2933 43.5195 34.3691 43.619C34.4448 43.7185 34.5425 43.7992 34.6545 43.8548C34.7665 43.9105 34.8898 43.9396 35.0148 43.9399H38.7552V46.372C38.7552 46.5348 38.8043 46.6914 38.8934 46.8235L40.521 49.2648C40.6715 49.489 40.9264 49.6241 41.1966 49.6241H46.0732C46.2875 49.6233 46.4928 49.5381 46.6445 49.3869C46.7963 49.2357 46.8823 49.0307 46.884 48.8165V45.5613C46.8828 45.4524 46.8599 45.3449 46.8164 45.245L43.7393 37.9362C43.6776 37.7882 43.5736 37.6618 43.4403 37.5727C43.307 37.4837 43.1503 37.436 42.99 37.4356H36.3169ZM36.9403 39.0632H38.7521V42.3092H36.0712L36.9403 39.0632ZM40.3797 39.0632H42.4465L45.2564 45.7271V47.9996H41.6265L40.3797 46.1264V43.123V39.0632ZM21.6778 45.5521C21.4625 45.5545 21.2569 45.6422 21.1061 45.7959C20.9553 45.9495 20.8716 46.1567 20.8732 46.372V48.8165C20.8486 49.922 22.5223 49.922 22.5008 48.8165V46.372C22.5016 46.2636 22.4808 46.1561 22.4395 46.0558C22.3982 45.9556 22.3373 45.8646 22.2603 45.7882C22.1834 45.7118 22.0919 45.6516 21.9913 45.611C21.8908 45.5705 21.7862 45.5505 21.6778 45.5521ZM24.9268 45.5521C24.7121 45.5553 24.5073 45.6433 24.3571 45.7969C24.207 45.9505 24.1237 46.1572 24.1253 46.372V48.8165C24.1007 49.922 25.7744 49.922 25.7498 48.8165V46.372C25.7507 46.2639 25.7299 46.1566 25.6888 46.0566C25.6477 45.9565 25.5871 45.8657 25.5104 45.7893C25.4338 45.713 25.3427 45.6527 25.2425 45.6119C25.1423 45.5712 25.035 45.5509 24.9268 45.5521ZM28.1728 45.5521C27.9586 45.5561 27.7546 45.6445 27.6051 45.798C27.4556 45.9515 27.3727 46.1578 27.3744 46.372V48.8165C27.3989 49.8729 28.9774 49.8729 29.002 48.8165V46.372C29.0028 46.2633 28.9818 46.1556 28.9404 46.0551C28.8989 45.9547 28.8377 45.8635 28.7604 45.7871C28.6831 45.7107 28.5913 45.6505 28.4904 45.6101C28.3895 45.5698 28.2815 45.55 28.1728 45.5521ZM24.1253 52.8732H46.064V54.5008H41.9981C40.9141 54.5008 40.9141 56.1284 41.9981 56.1284H48.4993C50.7656 56.1284 52.559 57.9218 52.559 60.1881C52.559 62.4514 50.7656 64.2479 48.4993 64.2479H23.3146C22.78 64.252 22.25 64.1498 21.7552 63.9473C21.2605 63.7448 20.8109 63.446 20.4326 63.0683C20.0544 62.6906 19.7549 62.2414 19.5516 61.747C19.3484 61.2526 19.2454 60.7227 19.2487 60.1881C19.2487 57.9218 21.0482 56.1253 23.3146 56.1253H38.7521C39.8362 56.1253 39.8362 54.4977 38.7521 54.4977H24.1253V52.8732ZM24.9391 57.7498C23.6033 57.7498 22.4977 58.8492 22.4977 60.1881C22.4977 61.5271 23.6033 62.6264 24.9391 62.6264C26.278 62.6264 27.3744 61.5209 27.3744 60.1881C27.3727 59.5425 27.1157 58.9237 26.6595 58.4669C26.2032 58.01 25.5848 57.7522 24.9391 57.7498ZM32.251 57.7498C30.9151 57.7498 29.8096 58.8492 29.8096 60.1881C29.8096 61.5271 30.9151 62.6264 32.251 62.6264C33.5868 62.6264 34.6862 61.5209 34.6862 60.1881C34.6846 59.5425 34.4276 58.9237 33.9714 58.4669C33.5151 58.01 32.8966 57.7522 32.251 57.7498ZM39.5598 57.7498C38.9147 57.7531 38.297 58.0112 37.8414 58.4679C37.3858 58.9247 37.1292 59.543 37.1276 60.1881C37.1276 61.524 38.227 62.6264 39.5629 62.6264C40.8987 62.6264 41.9981 61.5209 41.9981 60.1881C41.9965 59.5425 41.7395 58.9237 41.2832 58.4669C40.827 58.01 40.2054 57.7522 39.5598 57.7498ZM46.8747 57.7498C46.2291 57.7522 45.6106 58.01 45.1544 58.4669C44.6981 58.9237 44.4411 59.5425 44.4395 60.1881C44.4395 61.524 45.5358 62.6264 46.8747 62.6264C48.2106 62.6264 49.3161 61.5209 49.3161 60.1881C49.3161 58.8553 48.2106 57.7498 46.8747 57.7498ZM24.9391 59.3774C25.3998 59.3774 25.7498 59.7275 25.7498 60.1881C25.7498 60.6488 25.3998 61.0019 24.9391 61.0019C24.8319 61.0032 24.7255 60.983 24.6262 60.9425C24.5269 60.902 24.4367 60.8421 24.3609 60.7663C24.2851 60.6905 24.2252 60.6003 24.1847 60.501C24.1443 60.4017 24.1241 60.2953 24.1253 60.1881C24.1253 59.7275 24.4815 59.3774 24.9391 59.3774ZM32.251 59.3774C32.3579 59.3757 32.4641 59.3956 32.5632 59.4357C32.6623 59.4759 32.7523 59.5355 32.828 59.6112C32.9036 59.6868 32.9632 59.7768 33.0034 59.8759C33.0435 59.975 33.0634 60.0812 33.0617 60.1881C33.0638 60.2953 33.0443 60.4018 33.0043 60.5013C32.9643 60.6007 32.9047 60.6911 32.8291 60.7671C32.7534 60.843 32.6632 60.903 32.5639 60.9433C32.4646 60.9837 32.3582 61.0036 32.251 61.0019C32.1438 61.0032 32.0374 60.983 31.9381 60.9425C31.8388 60.902 31.7486 60.8421 31.6728 60.7663C31.597 60.6905 31.5371 60.6003 31.4966 60.501C31.4562 60.4017 31.436 60.2953 31.4372 60.1881C31.4372 59.7275 31.7934 59.3774 32.251 59.3774ZM39.5598 59.3774C40.0204 59.3774 40.3705 59.7275 40.3705 60.1881C40.3705 60.6488 40.0204 61.0019 39.5629 61.0019C39.1053 61.0019 38.7521 60.6457 38.7521 60.1881C38.7521 59.7306 39.1022 59.3774 39.5598 59.3774ZM46.8747 59.3774C47.3323 59.3774 47.6885 59.7275 47.6885 60.1881C47.6885 60.6457 47.3323 61.0019 46.8747 61.0019C46.4141 61.0019 46.064 60.6457 46.064 60.1881C46.064 59.7306 46.4141 59.3774 46.8747 59.3774Z" fill="white"/>
</svg>
