<svg width="84" height="84" viewBox="0 0 84 84" fill="none" xmlns="http://www.w3.org/2000/svg">
<rect x="0.5" y="0.647705" width="83" height="83" rx="41.5" fill="#FFB83B"/>
<g clip-path="url(#clip0_1434_783)">
<path fill-rule="evenodd" clip-rule="evenodd" d="M66.9499 52.4723C66.7975 52.6246 66.5908 52.7102 66.3753 52.7102H65.5628V62.1477H67.0316C67.5666 62.1477 68.0003 62.5814 68.0003 63.1165C68.0003 63.6515 67.5666 64.0852 67.0316 64.0852H16.9688C16.4337 64.0852 16 63.6515 16 63.1165C16 62.5814 16.4337 62.1477 16.9688 62.1477H18.4378V52.7102H17.6253C17.4098 52.7102 17.2032 52.6246 17.0508 52.4723C16.8984 52.3199 16.8128 52.1132 16.8128 51.8977V48.6477C16.8128 48.4323 16.8984 48.2256 17.0508 48.0732C17.2032 47.9209 17.4098 47.8352 17.6253 47.8352H27.3753V41.3352H22.5003C22.3397 41.3352 22.1826 41.2875 22.049 41.1983C21.9154 41.109 21.8113 40.9821 21.7498 40.8337C21.6884 40.6852 21.6723 40.5219 21.7036 40.3643C21.7349 40.2067 21.8123 40.0619 21.9259 39.9483L41.4259 20.4483C41.5013 20.3728 41.5908 20.3129 41.6894 20.272C41.788 20.2311 41.8936 20.2101 42.0003 20.2101C42.107 20.2101 42.2127 20.2311 42.3113 20.272C42.4098 20.3129 42.4994 20.3728 42.5748 20.4483L62.0748 39.9483C62.1876 40.0622 62.2642 40.2069 62.2951 40.3643C62.326 40.5216 62.3098 40.6845 62.2484 40.8327C62.1871 40.9808 62.0833 41.1075 61.9503 41.1969C61.8172 41.2863 61.6607 41.3344 61.5003 41.3352H56.6253V47.8352H66.3753C66.5908 47.8352 66.7975 47.9209 66.9499 48.0732C67.1022 48.2256 67.1878 48.4323 67.1878 48.6477V51.8977C67.1878 52.1132 67.1022 52.3199 66.9499 52.4723ZM65.5628 51.0852V49.4602H56.6253V51.0852H65.5628ZM27.3753 62.1477V52.7102H23.3128V62.1477H27.3753ZM55.0003 42.9602H29.0003V44.1477H29V58.1477H29.0003V62.1477H33.8753V58.1477H33.8867V45.2622C33.9147 45.097 33.9933 44.9433 34.1133 44.8232C34.2657 44.6709 34.4723 44.5852 34.6878 44.5852H49.3128C49.5283 44.5852 49.735 44.6709 49.8874 44.8232C50.0397 44.9756 50.1253 45.1823 50.1253 45.3977V46.2102H50.1289V47.8352H50.1253V51.0852H50.1289V52.7102H50.1253V55.9602H50.1289V57.5852H50.1253V62.1477H55.0003V57.5852H55V55.9602H55.0003V52.7102H55V51.0852H55.0003V47.8352H55V46.2102H55.0003V42.9602ZM47.3515 33.2102H36.6492L33.3992 36.4602H50.6015L47.3515 33.2102ZM41.7175 28.142L38.2742 31.5852H45.7265L42.2832 28.142C42.127 27.9858 41.8737 27.9858 41.7175 28.142ZM52.2265 38.0852H31.7742L29.0003 40.8591V41.3352H55.0003V40.8591L52.2265 38.0852ZM48.5 47.5537V50.1757L48.5003 50.1752V58.4952L48.5 58.4948V61.1168L48.5003 61.1172V62.1477L48.5 62.1477L47.2686 62.1477H45.1991H38.8023H36.7321H35.5003L35.5 62.1477V46.2024H48.5V46.2102H48.5003V47.5533L48.5 47.5537ZM60.6878 52.7102H56.6253V62.1477H60.6878V52.7102ZM43.4145 23.5858C42.6335 22.8048 41.3672 22.8048 40.5861 23.5858L25.3153 38.8567C25.0003 39.1717 25.2234 39.7102 25.6688 39.7102H27.8515L41.4259 26.1358C41.5013 26.0603 41.5908 26.0004 41.6894 25.9595C41.788 25.9186 41.8936 25.8976 42.0003 25.8976C42.107 25.8976 42.2127 25.9186 42.3113 25.9595C42.4098 26.0004 42.4994 26.0603 42.5748 26.1358L56.1492 39.7102H58.3318C58.7773 39.7102 59.0004 39.1717 58.6854 38.8567L43.4145 23.5858ZM27.3753 49.4602H18.4378V51.0852H27.3753V49.4602ZM21.6878 52.7102H20.0628V62.1477H21.6878V52.7102ZM62.3128 62.1477H63.9378V52.7102H62.3128V62.1477Z" fill="white"/>
</g>
<defs>
<clipPath id="clip0_1434_783">
<rect x="16" y="16.1477" width="52" height="52" rx="2" fill="white"/>
</clipPath>
</defs>
</svg>
