<svg width="84" height="83" viewBox="0 0 84 83" fill="none" xmlns="http://www.w3.org/2000/svg">
<rect x="0.5" width="83" height="83" rx="41.5" fill="#FFB83B"/>
<g clip-path="url(#clip0_1434_747)">
<path d="M26.5314 41.5001L56.7715 41.5001M27 44.7567H56.7715M61.5 41.5001L67.2383 41.5001M61.5 44.7567H67.2383M17 41.5001L23.2748 41.5001M17.2632 44.7567H23.2748M16.7617 56.1545C18.8622 56.1545 18.8622 56.9686 20.9626 56.9686C23.0651 56.9686 23.0651 56.1545 25.1675 56.1545C27.2688 56.1545 27.2688 56.9686 29.3699 56.9686C31.4721 56.9686 31.4721 56.1545 33.5744 56.1545C35.6775 56.1545 35.6775 56.9686 37.7807 56.9686C39.8838 56.9686 39.8838 56.1545 41.987 56.1545C44.0902 56.1545 44.0902 56.9686 46.1933 56.9686C48.2971 56.9686 48.2971 56.1545 50.4007 56.1545C52.5033 56.1545 52.5033 56.9686 54.6059 56.9686C56.7103 56.9686 56.7103 56.1545 58.8148 56.1545C60.9207 56.1545 60.9207 56.9686 63.0265 56.9686C65.1324 56.9686 65.1324 56.1545 67.2382 56.1545M23.2748 52.5001V26.0314H26.5313V52.5001" stroke="white" stroke-width="1.7" stroke-miterlimit="10" stroke-linecap="round" stroke-linejoin="round"/>
<path d="M28.1596 56.7417V53.7122C28.1596 53.6053 28.1385 53.4995 28.0976 53.4007C28.0567 53.3019 27.9967 53.2122 27.9211 53.1366C27.8455 53.061 27.7558 53.001 27.657 52.9601C27.5582 52.9192 27.4524 52.8981 27.3454 52.8981H22.4606C22.3537 52.8981 22.2478 52.9192 22.149 52.9601C22.0503 53.001 21.9605 53.061 21.8849 53.1366C21.8093 53.2122 21.7494 53.3019 21.7084 53.4007C21.6675 53.4995 21.6465 53.6053 21.6465 53.7122V56.7417M60.7251 31.7305V26.0314M60.7251 26.0314H57.4686M60.7251 26.0314C61.9788 29.3306 64.283 32.1247 67.2381 34.0121M57.4686 26.0314V52.898M57.4686 26.0314C55.1211 32.209 49.0906 36.6153 41.9999 36.6153C34.9092 36.6153 28.8788 32.2091 26.5313 26.0315M60.7251 52.898V31.0001M55.8402 56.7417V53.7122C55.8402 53.6053 55.8613 53.4995 55.9022 53.4007C55.9431 53.3019 56.0031 53.2122 56.0787 53.1366C56.1543 53.061 56.244 53.001 56.3428 52.9601C56.4416 52.9192 56.5474 52.8981 56.6544 52.8981H61.5392C61.6461 52.8981 61.752 52.9192 61.8508 52.9601C61.9495 53.001 62.0393 53.061 62.1149 53.1366C62.1905 53.2122 62.2504 53.3019 62.2914 53.4007C62.3323 53.4995 62.3533 53.6053 62.3533 53.7122V56.7417M23.2747 26.0315C22.021 29.3307 19.9551 32.1127 17 34.0001M39.5575 36.6152V41.5001M34.6726 34.992V41.5001M29.7877 31.5439V41.5M54.2119 31.5439V41.5M49.3271 34.992V41.5001M63.9812 31.5437V41.4997M20.0182 31.5437V41.4997M44.4423 36.6152V41.5001" stroke="white" stroke-width="1.6" stroke-miterlimit="10" stroke-linecap="round" stroke-linejoin="round"/>
</g>
<defs>
<clipPath id="clip0_1434_747">
<rect width="52" height="52" fill="white" transform="translate(16 15.5)"/>
</clipPath>
</defs>
</svg>
