<svg width="84" height="83" viewBox="0 0 84 83" fill="none" xmlns="http://www.w3.org/2000/svg">
<rect x="0.5" width="83" height="83" rx="41.5" fill="#FFB83B"/>
<g clip-path="url(#clip0_1440_771)">
<path d="M19.8984 46.8077V19.3984H36.0333C41.8577 26.6796 32.5401 28.0427 37.5695 32.8134C40.8916 35.9647 33.8486 45.8403 40.9373 46.1719C44.705 46.348 46.853 42.5642 53.9775 45.5147C58.1092 47.2259 61.2413 45.5887 64.1015 45.1662V63.6016H19.8984V45.543M62.3046 19.3984V45.3831M55.821 19.3984V45.9248M49.3373 19.3984V44.2435M42.8537 19.3984V45.7854M37.4431 21.1954H64.1016M36.969 27.679H64.1016M38.5396 34.1627H64.1016M38.0241 40.6464H64.1016" stroke="white" stroke-width="2" stroke-miterlimit="22.9256" stroke-linecap="round" stroke-linejoin="round"/>
<path d="M29.332 35.0313C30.374 35.0313 31.2188 34.1866 31.2188 33.1446C31.2188 32.1026 30.374 31.2579 29.332 31.2579C28.29 31.2579 27.4453 32.1026 27.4453 33.1446C27.4453 34.1866 28.29 35.0313 29.332 35.0313Z" stroke="white" stroke-width="2" stroke-miterlimit="22.9256" stroke-linecap="round" stroke-linejoin="round"/>
<path d="M41.2812 57.2226C42.3233 57.2226 43.168 56.3779 43.168 55.3359C43.168 54.2939 42.3233 53.4492 41.2812 53.4492C40.2392 53.4492 39.3945 54.2939 39.3945 55.3359C39.3945 56.3779 40.2392 57.2226 41.2812 57.2226Z" stroke="white" stroke-width="2" stroke-miterlimit="22.9256" stroke-linecap="round" stroke-linejoin="round"/>
<path d="M25.2891 24.6094H25.2897M32.1172 44.1952H32.1178M27.0859 54.7968H27.0866M49.9061 49.4062H49.9068M55.8358 56.0546H55.8364" stroke="white" stroke-width="2" stroke-miterlimit="22.9256" stroke-linecap="round" stroke-linejoin="round"/>
</g>
<defs>
<clipPath id="clip0_1440_771">
<rect x="19" y="18.5" width="46" height="46" rx="2" fill="white"/>
</clipPath>
</defs>
</svg>
