<svg width="84" height="83" viewBox="0 0 84 83" fill="none" xmlns="http://www.w3.org/2000/svg">
<rect x="0.5" width="83" height="83" rx="41.5" fill="#FFB83B"/>
<path d="M39.9204 48.4797H45.2402C45.2426 48.4797 45.2449 48.4794 45.2474 48.4793C46.4075 48.4769 47.4977 47.91 48.384 46.8667C48.6092 47.1522 48.7424 47.515 48.7444 47.9204L48.7408 52.3521C47.8727 52.4876 47.3626 52.9598 46.9752 53.3204C46.592 53.677 46.3607 53.8923 45.8155 53.8923C45.2703 53.8923 45.039 53.677 44.6558 53.3204C44.1989 52.8951 43.5734 52.313 42.389 52.313C41.2046 52.313 40.579 52.8951 40.1222 53.3204C39.739 53.677 39.5077 53.8923 38.9625 53.8923C38.747 53.8923 38.5403 53.9779 38.3879 54.1302C38.2356 54.2826 38.15 54.4893 38.15 54.7048C38.15 54.9202 38.2356 55.1269 38.3879 55.2793C38.5403 55.4316 38.747 55.5173 38.9625 55.5173C40.1469 55.5173 40.7724 54.9351 41.2292 54.5098C41.6124 54.1532 41.8438 53.938 42.389 53.938C42.9342 53.938 43.1655 54.1532 43.5487 54.5098C44.0056 54.9351 44.6311 55.5173 45.8155 55.5173C46.9999 55.5173 47.6254 54.9351 48.0823 54.5098C48.4655 54.1532 48.6968 53.938 49.242 53.938C49.7872 53.938 50.0186 54.1532 50.4018 54.5098C50.8586 54.9351 51.4842 55.5173 52.6686 55.5173C53.853 55.5173 54.4786 54.9351 54.9353 54.5098C55.3185 54.1532 55.5499 53.938 56.095 53.938C56.6402 53.938 56.8716 54.1532 57.2549 54.5098C57.7116 54.9351 58.3372 55.5173 59.5217 55.5173C60.7061 55.5173 61.3316 54.9351 61.7884 54.5098C62.1716 54.1532 62.403 53.938 62.9482 53.938C63.4934 53.938 63.7247 54.1532 64.1079 54.5098C64.5648 54.9351 65.1903 55.5173 66.3747 55.5173C66.5902 55.5173 66.7968 55.4316 66.9492 55.2793C67.1016 55.1269 67.1872 54.9202 67.1872 54.7048C67.1872 54.4893 67.1016 54.2826 66.9492 54.1302C66.7968 53.9779 66.5902 53.8923 66.3747 53.8923C65.8295 53.8923 65.5981 53.677 65.215 53.3204C64.7581 52.8951 64.1326 52.313 62.9482 52.313C61.7638 52.313 61.1382 52.8951 60.6814 53.3204C60.2982 53.677 60.0669 53.8923 59.5217 53.8923C58.9765 53.8923 58.7451 53.677 58.3618 53.3204C57.9097 52.8995 57.2914 52.3257 56.1303 52.3141L56.126 47.8945C56.1145 45.4629 55.1656 43.1832 53.454 41.4755C52.5621 40.584 51.4934 39.8891 50.3166 39.4354C49.9455 35.5986 47.8237 32.7692 45.2398 32.7692H39.9201C38.967 32.7692 38.092 33.34 37.3928 34.3945H31.2119L28.4181 19.943C28.3823 19.7577 28.2831 19.5907 28.1376 19.4705C27.992 19.3504 27.8092 19.2847 27.6205 19.2847H17.625C17.4095 19.2847 17.2028 19.3703 17.0505 19.5227C16.8981 19.6751 16.8125 19.8817 16.8125 20.0972V61.4608C16.8125 61.6763 16.8981 61.8829 17.0505 62.0353C17.2028 62.1877 17.4095 62.2733 17.625 62.2733H35.6178C35.7376 62.2733 35.8559 62.2468 35.9642 62.1957C36.0725 62.1447 36.1682 62.0703 36.2445 61.9779C36.3207 61.8855 36.3756 61.7775 36.4051 61.6614C36.4347 61.5454 36.4383 61.4242 36.4156 61.3066L33.6213 46.8544H37.3931C38.0923 47.909 38.9673 48.4797 39.9204 48.4797ZM54.5013 47.8992L54.506 52.7679C54.2338 52.9445 54.0165 53.1455 53.8286 53.3204C53.4454 53.677 53.214 53.8923 52.6688 53.8923C52.1235 53.8923 51.8923 53.677 51.509 53.3204C51.2247 53.0558 50.8748 52.7305 50.3658 52.5224L50.3695 47.9172C50.3607 46.0595 48.8925 44.6044 47.0233 44.6044L45.2919 44.6124C45.1802 44.5365 44.9638 44.3098 44.7799 44.0103C44.2139 43.0882 43.9431 41.7721 43.966 40.4719L47.027 40.4497C51.1289 40.4498 54.4818 43.793 54.5013 47.8992ZM45.7005 37.2384C45.9706 37.6784 46.1782 38.2199 46.3176 38.8299L44.157 38.8455C44.2929 38.2467 44.5001 37.6943 44.7799 37.2384C44.9384 36.9803 45.1212 36.7761 45.2402 36.6762C45.3592 36.7761 45.542 36.9802 45.7005 37.2384ZM48.618 38.965C48.4085 38.928 48.1978 38.8982 47.9863 38.8758C47.8483 38.1123 47.5853 37.2026 47.0853 36.3884C46.768 35.8712 46.1062 35.0036 45.2402 35.0036C44.3743 35.0036 43.7124 35.8711 43.3951 36.3883C41.9854 38.6844 41.9854 42.5644 43.395 44.8605C43.6736 45.3146 44.2553 46.0957 45.0198 46.2264C45.0663 46.2344 45.1148 46.2393 45.1604 46.238L46.7376 46.2307C46.2679 46.6381 45.7568 46.8546 45.2402 46.8546C43.3372 46.8546 41.7295 44.0015 41.7295 40.6243C41.7295 37.2472 43.3372 34.3941 45.2402 34.3941C46.7931 34.3942 48.193 36.3627 48.618 38.965ZM39.9204 34.3942H42.0785C40.8705 35.819 40.1044 38.0591 40.1044 40.6244C40.1044 43.1898 40.8705 45.4299 42.0786 46.8548H39.9204C38.9256 46.8548 37.4806 44.4277 37.4806 40.6244C37.4806 36.8212 38.9256 34.3942 39.9204 34.3942ZM18.4375 60.6483V20.9096H26.95L34.6332 60.6482L18.4375 60.6483ZM31.5265 36.0195H36.5965C36.1166 37.3441 35.8556 38.9477 35.8556 40.6244C35.8556 42.3011 36.1166 43.9049 36.5965 45.2295H33.3072L31.5265 36.0195ZM67.1875 58.8038C67.1875 59.0193 67.1019 59.226 66.9495 59.3783C66.7972 59.5307 66.5905 59.6163 66.375 59.6163C65.1906 59.6163 64.565 59.0341 64.1082 58.6089C63.725 58.2521 63.4937 58.0369 62.9485 58.0369C62.4033 58.0369 62.1719 58.2521 61.7887 58.6089C61.332 59.0341 60.7064 59.6163 59.522 59.6163C58.3375 59.6163 57.7119 59.0341 57.2551 58.6089C56.872 58.2522 56.6405 58.0369 56.0954 58.0369C55.5502 58.0369 55.3188 58.2521 54.9357 58.6089C54.4789 59.0341 53.8533 59.6163 52.6689 59.6163C51.4845 59.6163 50.8589 59.0341 50.4021 58.6088C50.0189 58.2521 49.7875 58.0369 49.2423 58.0369C48.6971 58.0369 48.4658 58.2521 48.0826 58.6089C47.6259 59.0341 47.0002 59.6163 45.8158 59.6163C44.6314 59.6163 44.0058 59.0341 43.549 58.6089C43.1658 58.2521 42.9345 58.0369 42.3893 58.0369C41.8441 58.0369 41.6127 58.2521 41.2295 58.6089C40.7728 59.0341 40.1472 59.6163 38.9628 59.6163C38.7473 59.6163 38.5406 59.5307 38.3882 59.3783C38.2359 59.226 38.1503 59.0193 38.1503 58.8038C38.1503 58.5883 38.2359 58.3817 38.3882 58.2293C38.5406 58.0769 38.7473 57.9913 38.9628 57.9913C39.508 57.9913 39.7393 57.7761 40.1225 57.4193C40.5792 56.9942 41.2049 56.4119 42.3893 56.4119C43.5737 56.4119 44.1993 56.9942 44.6561 57.4193C45.0393 57.7761 45.2706 57.9913 45.8158 57.9913C46.361 57.9913 46.5924 57.7761 46.9755 57.4193C47.4323 56.9942 48.0579 56.4119 49.2423 56.4119C50.4267 56.4119 51.0523 56.9942 51.5091 57.4193C51.8923 57.776 52.1236 57.9913 52.6689 57.9913C53.2141 57.9913 53.4455 57.7761 53.8286 57.4193C54.2854 56.9942 54.911 56.4119 56.0954 56.4119C57.2798 56.4119 57.9054 56.9942 58.3622 57.4193C58.7453 57.776 58.9768 57.9913 59.522 57.9913C60.0672 57.9913 60.2985 57.7761 60.6817 57.4193C61.1384 56.9942 61.7641 56.4119 62.9485 56.4119C64.1329 56.4119 64.7585 56.9942 65.2153 57.4193C65.5985 57.7761 65.8298 57.9913 66.375 57.9913C66.5905 57.9913 66.7972 58.0769 66.9495 58.2293C67.1019 58.3817 67.1875 58.5883 67.1875 58.8038ZM67.1875 62.9029C67.1875 63.1184 67.1019 63.325 66.9495 63.4774C66.7972 63.6298 66.5905 63.7154 66.375 63.7154C65.1906 63.7154 64.565 63.1331 64.1082 62.708C63.725 62.3512 63.4937 62.136 62.9485 62.136C62.4033 62.136 62.1719 62.3512 61.7887 62.708C61.332 63.1331 60.7064 63.7154 59.522 63.7154C58.3375 63.7154 57.7119 63.1331 57.2551 62.708C56.872 62.3513 56.6405 62.136 56.0954 62.136C55.5502 62.136 55.3188 62.3512 54.9357 62.708C54.4789 63.1331 53.8533 63.7154 52.6689 63.7154C51.4845 63.7154 50.8589 63.1331 50.4021 62.7079C50.0189 62.3512 49.7875 62.136 49.2423 62.136C48.6971 62.136 48.4658 62.3512 48.0826 62.708C47.6259 63.1331 47.0002 63.7154 45.8158 63.7154C44.6314 63.7154 44.0058 63.1331 43.549 62.708C43.1658 62.3512 42.9345 62.136 42.3893 62.136C41.8441 62.136 41.6127 62.3512 41.2295 62.708C40.7728 63.1331 40.1472 63.7154 38.9628 63.7154C38.7473 63.7154 38.5406 63.6298 38.3882 63.4774C38.2359 63.325 38.1503 63.1184 38.1503 62.9029C38.1503 62.6874 38.2359 62.4807 38.3882 62.3284C38.5406 62.176 38.7473 62.0904 38.9628 62.0904C39.508 62.0904 39.7393 61.8752 40.1225 61.5184C40.5792 61.0932 41.2049 60.511 42.3893 60.511C43.5737 60.511 44.1993 61.0932 44.6561 61.5184C45.0393 61.8752 45.2706 62.0904 45.8158 62.0904C46.361 62.0904 46.5924 61.8752 46.9755 61.5184C47.4323 61.0932 48.0579 60.511 49.2423 60.511C50.4267 60.511 51.0523 61.0932 51.5091 61.5184C51.8923 61.8751 52.1236 62.0904 52.6689 62.0904C53.2141 62.0904 53.4455 61.8752 53.8286 61.5184C54.2854 61.0932 54.911 60.511 56.0954 60.511C57.2798 60.511 57.9054 61.0932 58.3622 61.5184C58.7453 61.8751 58.9768 62.0904 59.522 62.0904C60.0672 62.0904 60.2985 61.8752 60.6817 61.5184C61.1384 61.0932 61.7641 60.511 62.9485 60.511C64.1329 60.511 64.7585 61.0932 65.2153 61.5184C65.5985 61.8752 65.8298 62.0904 66.375 62.0904C66.5905 62.0904 66.7972 62.176 66.9495 62.3284C67.1019 62.4807 67.1875 62.6874 67.1875 62.9029Z" fill="white"/>
</svg>
