<svg width="84" height="83" viewBox="0 0 84 83" fill="none" xmlns="http://www.w3.org/2000/svg">
<rect x="0.5" width="83" height="83" rx="41.5" fill="#FFB83B"/>
<g clip-path="url(#clip0_1440_740)">
<path d="M30 49.9707V45.7354H27.8824C27.5079 45.7354 27.1488 45.5866 26.8841 45.3219C26.6193 45.0571 26.4706 44.698 26.4706 44.3236V28.7942C26.4706 28.5673 26.5254 28.3437 26.6302 28.1424C26.735 27.9411 26.8868 27.7681 27.0727 27.638L41.1904 17.7556C41.4277 17.5895 41.7103 17.5004 42 17.5004C42.2897 17.5004 42.5723 17.5895 42.8096 17.7556L56.9273 27.638C57.1132 27.7681 57.265 27.9411 57.3698 28.1424C57.4746 28.3437 57.5294 28.5673 57.5294 28.7942V44.3236C57.5294 44.698 57.3807 45.0571 57.1159 45.3219C56.8512 45.5866 56.4921 45.7354 56.1176 45.7354H54V49.9707H63.1765C63.9253 49.9707 64.6435 50.2681 65.173 50.7977C65.7025 51.3272 66 52.0453 66 52.7942V62.6766C66 63.4254 65.7025 64.1436 65.173 64.6731C64.6435 65.2026 63.9253 65.5001 63.1765 65.5001H20.8235C20.0747 65.5001 19.3565 65.2026 18.827 64.6731C18.2975 64.1436 18 63.4254 18 62.6766V52.7942C18 52.0453 18.2975 51.3272 18.827 50.7977C19.3565 50.2681 20.0747 49.9707 20.8235 49.9707H30ZM32.8235 49.9707H40.5882V45.7354H32.8235V49.9707ZM43.4118 49.9707H51.1765V45.7354H43.4118V49.9707ZM51.1765 57.0295V52.7942H43.4118V57.0295H44.1176C44.4921 57.0295 44.8512 57.1782 45.1159 57.443C45.3807 57.7077 45.5294 58.0668 45.5294 58.4413C45.5294 58.8157 45.3807 59.1748 45.1159 59.4395C44.8512 59.7043 44.4921 59.853 44.1176 59.853H39.8824C39.5079 59.853 39.1488 59.7043 38.8841 59.4395C38.6193 59.1748 38.4706 58.8157 38.4706 58.4413C38.4706 58.0668 38.6193 57.7077 38.8841 57.443C39.1488 57.1782 39.5079 57.0295 39.8824 57.0295H40.5882V52.7942H32.8235V57.0295H33.5294C33.9038 57.0295 34.2629 57.1782 34.5277 57.443C34.7924 57.7077 34.9412 58.0668 34.9412 58.4413C34.9412 58.8157 34.7924 59.1748 34.5277 59.4395C34.2629 59.7043 33.9038 59.853 33.5294 59.853H29.2941C28.9197 59.853 28.5606 59.7043 28.2958 59.4395C28.0311 59.1748 27.8824 58.8157 27.8824 58.4413C27.8824 58.0668 28.0311 57.7077 28.2958 57.443C28.5606 57.1782 28.9197 57.0295 29.2941 57.0295H30V52.7942H20.8235V62.6766H63.1765V52.7942H54V57.0295H54.7059C55.0803 57.0295 55.4394 57.1782 55.7042 57.443C55.9689 57.7077 56.1176 58.0668 56.1176 58.4413C56.1176 58.8157 55.9689 59.1748 55.7042 59.4395C55.4394 59.7043 55.0803 59.853 54.7059 59.853H50.4706C50.0962 59.853 49.7371 59.7043 49.4723 59.4395C49.2076 59.1748 49.0588 58.8157 49.0588 58.4413C49.0588 58.0668 49.2076 57.7077 49.4723 57.443C49.7371 57.1782 50.0962 57.0295 50.4706 57.0295H51.1765ZM47.6471 42.9118H54.7059V29.529L42 20.6349L29.2941 29.529V42.9118H36.3529V35.853C36.3529 34.3553 36.9479 32.919 38.0069 31.8599C39.066 30.8009 40.5023 30.206 42 30.206C43.4977 30.206 44.934 30.8009 45.9931 31.8599C47.0521 32.919 47.6471 34.3553 47.6471 35.853V42.9118ZM44.8235 42.9118V35.853C44.8235 35.1042 44.5261 34.386 43.9965 33.8565C43.467 33.327 42.7488 33.0295 42 33.0295C41.2512 33.0295 40.533 33.327 40.0035 33.8565C39.4739 34.386 39.1765 35.1042 39.1765 35.853V42.9118H44.8235Z" fill="white"/>
</g>
<defs>
<clipPath id="clip0_1440_740">
<rect width="48" height="48" fill="white" transform="translate(18 17.5)"/>
</clipPath>
</defs>
</svg>
