<svg width="84" height="83" viewBox="0 0 84 83" fill="none" xmlns="http://www.w3.org/2000/svg">
<rect x="0.5" width="83" height="83" rx="41.5" fill="#FFB83B"/>
<g clip-path="url(#clip0_1440_730)">
<path d="M48.3281 31.3047C48.5146 31.3047 48.6934 31.2306 48.8253 31.0987C48.9572 30.9669 49.0312 30.788 49.0312 30.6016C49.0312 30.4151 48.9572 30.2362 48.8253 30.1044C48.6934 29.9725 48.5146 29.8984 48.3281 29.8984C47.7466 29.8984 47.2734 29.4252 47.2734 28.8438C47.2734 28.2623 47.7466 27.7891 48.3281 27.7891C48.9096 27.7891 49.3828 28.2623 49.3828 28.8438C49.3828 29.0302 49.4569 29.2091 49.5888 29.3409C49.7206 29.4728 49.8995 29.5469 50.0859 29.5469C50.2724 29.5469 50.4513 29.4728 50.5831 29.3409C50.715 29.2091 50.7891 29.0302 50.7891 28.8438C50.7891 27.4867 49.6852 26.3828 48.3281 26.3828C46.9711 26.3828 45.8672 27.4867 45.8672 28.8438C45.8672 30.2008 46.9711 31.3047 48.3281 31.3047Z" fill="white"/>
<path d="M35.9769 45.2286L45.7714 53.2934C45.8973 53.3961 46.0555 53.4537 46.2186 53.4537H51.8436C51.9363 53.4537 52.0282 53.4354 52.1138 53.3997C52.1994 53.3641 52.2772 53.3119 52.3425 53.2461C52.4079 53.1802 52.4596 53.1022 52.4946 53.0163C52.5296 52.9304 52.5474 52.8384 52.5467 52.7457C52.5453 51.2326 51.8351 48.3568 49.2687 47.3703L51.8548 40.9051L51.2516 33.6348C51.9807 33.1964 52.5994 32.5962 53.0598 31.8807C53.5201 31.1652 53.8098 30.3534 53.9065 29.5081L63.8403 28.8873C64.0265 28.8756 64.2004 28.7905 64.3239 28.6505C64.4473 28.5106 64.5101 28.3274 64.4984 28.1412C64.4868 27.955 64.4016 27.7811 64.2617 27.6577C64.1218 27.5343 63.9386 27.4715 63.7524 27.4831L53.8974 28.0991C53.771 27.1652 53.4124 26.2779 52.8543 25.5185C52.2963 24.7591 51.5566 24.1519 50.7031 23.7523L59.431 20.3584C59.5202 20.3273 59.6022 20.2786 59.6722 20.2151C59.7421 20.1517 59.7986 20.0748 59.8381 19.9891C59.8777 19.9033 59.8996 19.8105 59.9026 19.7161C59.9055 19.6217 59.8894 19.5277 59.8551 19.4396C59.8209 19.3516 59.7693 19.2714 59.7034 19.2037C59.6376 19.1361 59.5587 19.0824 59.4716 19.0459C59.3845 19.0094 59.291 18.9908 59.1965 18.9912C59.1021 18.9917 59.0087 19.0111 58.9219 19.0484L48.1775 23.2271C45.2215 23.3059 42.8323 25.6726 42.7149 28.6187L35.2027 40.1816C34.6873 40.9706 34.4814 41.9221 34.6244 42.8537C34.7674 43.7852 35.2492 44.6312 35.9776 45.2293L35.9769 45.2286ZM48.328 24.6249C50.6546 24.6249 52.5467 26.517 52.5467 28.8437C52.5467 30.4608 51.6488 31.9079 50.1969 32.6244C49.6167 32.9144 48.9766 33.0645 48.328 33.0624C46.0013 33.0624 44.1092 31.1703 44.1092 28.8437C44.1092 26.517 46.0013 24.6249 48.328 24.6249ZM36.3805 40.948L43.0292 30.714C43.8026 32.8979 45.8825 34.4687 48.328 34.4687C48.8616 34.4687 49.3876 34.3843 49.891 34.2387L50.4261 40.6892L47.6748 47.5665C47.5974 47.7598 47.6101 47.9785 47.7092 48.1627C47.809 48.3462 47.9848 48.4756 48.1894 48.5171C50.3234 48.9439 50.914 50.9555 51.0772 52.0468H46.4703L36.8705 44.1423C36.4095 43.7639 36.1044 43.2285 36.014 42.6389C35.9235 42.0494 36.054 41.4472 36.3805 40.948Z" fill="white"/>
<path d="M55.0078 44.3125C55.5893 44.3125 56.0625 44.7857 56.0625 45.3672C56.0625 45.5537 56.1366 45.7325 56.2684 45.8644C56.4003 45.9962 56.5791 46.0703 56.7656 46.0703C56.9521 46.0703 57.1309 45.9962 57.2628 45.8644C57.3947 45.7325 57.4687 45.5537 57.4687 45.3672C57.4687 44.0102 56.3648 42.9063 55.0078 42.9063C53.6508 42.9063 52.5469 44.0102 52.5469 45.3672C52.5469 46.7242 53.6508 47.8281 55.0078 47.8281C55.1943 47.8281 55.3731 47.7541 55.505 47.6222C55.6369 47.4903 55.7109 47.3115 55.7109 47.125C55.7109 46.9385 55.6369 46.7597 55.505 46.6278C55.3731 46.496 55.1943 46.4219 55.0078 46.4219C54.4263 46.4219 53.9531 45.9487 53.9531 45.3672C53.9531 44.7857 54.4263 44.3125 55.0078 44.3125ZM26.8828 53.4531C25.5258 53.4531 24.4219 54.557 24.4219 55.9141C24.4219 56.1006 24.496 56.2794 24.6278 56.4113C24.7597 56.5431 24.9385 56.6172 25.125 56.6172C25.3115 56.6172 25.4903 56.5431 25.6222 56.4113C25.754 56.2794 25.8281 56.1006 25.8281 55.9141C25.8281 55.3326 26.3013 54.8594 26.8828 54.8594C27.4643 54.8594 27.9375 55.3326 27.9375 55.9141C27.9375 56.4956 27.4643 56.9688 26.8828 56.9688C26.6963 56.9688 26.5175 57.0428 26.3856 57.1747C26.2538 57.3066 26.1797 57.4854 26.1797 57.6719C26.1797 57.8584 26.2538 58.0372 26.3856 58.1691C26.5175 58.3009 26.6963 58.375 26.8828 58.375C28.2398 58.375 29.3437 57.2711 29.3437 55.9141C29.3437 54.557 28.2398 53.4531 26.8828 53.4531ZM60.7784 52.132C60.8437 52.1973 60.9212 52.2492 61.0066 52.2846C61.0919 52.32 61.1834 52.3382 61.2758 52.3382C61.3682 52.3382 61.4597 52.32 61.5451 52.2846C61.6304 52.2492 61.708 52.1973 61.7733 52.132C62.1705 51.7354 62.3892 51.2052 62.3892 50.6406C62.3892 50.076 62.1698 49.5459 61.7733 49.1493C60.978 48.3541 59.5852 48.3541 58.7899 49.1493C58.6581 49.2812 58.584 49.4601 58.5841 49.6467C58.5842 49.8332 58.6583 50.012 58.7903 50.1439C58.9222 50.2757 59.1011 50.3498 59.2876 50.3497C59.4741 50.3496 59.653 50.2755 59.7848 50.1435C60.0478 49.8799 60.5154 49.8799 60.7791 50.1435C60.9112 50.2757 60.9837 50.4515 60.9837 50.6406C60.9837 50.8298 60.9112 51.0063 60.7791 51.1377C60.7137 51.203 60.6619 51.2805 60.6265 51.3658C60.5911 51.4511 60.5729 51.5425 60.5729 51.6349C60.5729 51.7272 60.5911 51.8186 60.6265 51.9039C60.6619 51.9892 60.713 52.0667 60.7784 52.132ZM31.8652 35.463C32.0041 35.4628 32.1399 35.4214 32.2554 35.3441C32.3709 35.2669 32.4609 35.1572 32.5141 35.0288C32.5674 34.9005 32.5814 34.7592 32.5545 34.6229C32.5276 34.4866 32.461 34.3613 32.363 34.2628C32.2976 34.1976 32.2459 34.1201 32.2107 34.0347C32.1756 33.9494 32.1578 33.8579 32.1584 33.7656C32.1584 33.5765 32.2308 33.4 32.363 33.2685C32.6259 33.0049 33.0935 33.0049 33.3565 33.2685C33.4218 33.3339 33.4993 33.3857 33.5846 33.4211C33.6699 33.4564 33.7613 33.4747 33.8537 33.4747C33.946 33.4747 34.0375 33.4566 34.1228 33.4213C34.2082 33.3859 34.2857 33.3342 34.3511 33.2689C34.4164 33.2036 34.4682 33.1261 34.5036 33.0408C34.539 32.9555 34.5572 32.864 34.5572 32.7717C34.5572 32.6793 34.5391 32.5879 34.5038 32.5025C34.4685 32.4172 34.4167 32.3396 34.3514 32.2743C33.5562 31.4791 32.1626 31.4791 31.368 32.2743C30.9708 32.6709 30.7521 33.201 30.7521 33.7656C30.7521 34.3303 30.9715 34.8604 31.368 35.257C31.4333 35.3224 31.5107 35.3742 31.596 35.4096C31.6814 35.4449 31.7728 35.4631 31.8652 35.463ZM55.384 24.8099C55.4245 24.9587 55.5128 25.09 55.6353 25.1836C55.7578 25.2772 55.9076 25.328 56.0618 25.3281C56.123 25.3281 63.9818 23.1942 63.9818 23.1942C64.1617 23.1451 64.3148 23.0266 64.4074 22.8647C64.5 22.7027 64.5244 22.5107 64.4754 22.3307C64.4263 22.1508 64.3078 21.9977 64.1459 21.9051C63.984 21.8125 63.7919 21.7881 63.6119 21.8371L55.8776 23.9465C55.7885 23.9708 55.705 24.0124 55.632 24.0689C55.5589 24.1254 55.4977 24.1958 55.4519 24.276C55.4061 24.3561 55.3765 24.4446 55.3648 24.5362C55.3532 24.6278 55.3597 24.7208 55.384 24.8099Z" fill="white"/>
<path d="M63.7969 56.9687H60.1927C59.8798 55.7565 58.7773 54.8593 57.4688 54.8593C56.1602 54.8593 55.0584 55.7565 54.7448 56.9687H41.8601C41.2392 54.7391 39.3021 53.0649 37.0331 52.79C36.7083 50.3888 34.6453 48.5312 32.1555 48.5312H30.0251L29.7087 38.2163C29.6787 37.0222 29.1819 35.8874 28.3249 35.0553C27.4678 34.2232 26.3188 33.7602 25.1243 33.7655H20.2031C20.0166 33.7655 19.8378 33.8396 19.7059 33.9715C19.5741 34.1034 19.5 34.2822 19.5 34.4687V63.2968C19.5 63.4833 19.5741 63.6621 19.7059 63.794C19.8378 63.9258 20.0166 63.9999 20.2031 63.9999H63.7969C63.9834 63.9999 64.1622 63.9258 64.2941 63.794C64.4259 63.6621 64.5 63.4833 64.5 63.2968V57.6718C64.5 57.4853 64.4259 57.3065 64.2941 57.1746C64.1622 57.0428 63.9834 56.9687 63.7969 56.9687ZM63.0938 62.5937H20.9062V35.1718H25.125C25.9533 35.1686 26.75 35.49 27.3442 36.0671C27.9384 36.6442 28.2829 37.4311 28.3038 38.2592L28.6413 49.2561C28.6468 49.4389 28.7233 49.6124 28.8546 49.7397C28.9859 49.867 29.1616 49.9382 29.3445 49.9381H32.157C34.0955 49.9381 35.6726 51.5152 35.6726 53.4538C35.6726 53.6402 35.7467 53.8191 35.8785 53.9509C36.0104 54.0828 36.1892 54.1569 36.3757 54.1569C38.4415 54.1569 40.2591 55.7178 40.6043 57.7878C40.6316 57.952 40.7162 58.1012 40.8432 58.2088C40.9701 58.3164 41.1311 58.3756 41.2976 58.3756H55.3601C55.5466 58.3756 55.7254 58.3015 55.8573 58.1697C55.9891 58.0378 56.0632 57.859 56.0632 57.6725C56.0632 56.897 56.6939 56.2663 57.4695 56.2663C58.245 56.2663 58.8757 56.897 58.8757 57.6725C58.8757 57.859 58.9498 58.0378 59.0816 58.1697C59.2135 58.3015 59.3923 58.3756 59.5788 58.3756H63.0945V62.5944L63.0938 62.5937ZM40.8532 40.3187C40.9679 40.3189 41.0808 40.2909 41.1822 40.2374C41.2835 40.1838 41.3702 40.1062 41.4347 40.0114L43.987 36.2708C44.0391 36.1945 44.0756 36.1087 44.0944 36.0182C44.1133 35.9278 44.1142 35.8346 44.097 35.7438C44.0798 35.6531 44.0449 35.5666 43.9943 35.4893C43.9437 35.412 43.8784 35.3455 43.8021 35.2934C43.7258 35.2414 43.64 35.2049 43.5496 35.1861C43.4591 35.1672 43.3659 35.1663 43.2751 35.1835C43.1844 35.2007 43.0979 35.2355 43.0206 35.2861C42.9434 35.3367 42.8768 35.402 42.8248 35.4784L40.2724 39.219C40.2003 39.3246 40.1583 39.4479 40.1511 39.5756C40.1438 39.7032 40.1715 39.8305 40.2311 39.9436C40.2908 40.0567 40.3802 40.1514 40.4897 40.2175C40.5992 40.2836 40.7253 40.3186 40.8532 40.3187Z" fill="white"/>
<path d="M63.4453 47.125C64.0278 47.125 64.5 46.6528 64.5 46.0703C64.5 45.4878 64.0278 45.0156 63.4453 45.0156C62.8628 45.0156 62.3906 45.4878 62.3906 46.0703C62.3906 46.6528 62.8628 47.125 63.4453 47.125Z" fill="white"/>
<path d="M24.7734 48.5312C25.3559 48.5312 25.8281 48.0591 25.8281 47.4766C25.8281 46.8941 25.3559 46.4219 24.7734 46.4219C24.1909 46.4219 23.7188 46.8941 23.7188 47.4766C23.7188 48.0591 24.1909 48.5312 24.7734 48.5312Z" fill="white"/>
<path d="M28.2891 30.9531C28.8716 30.9531 29.3438 30.4809 29.3438 29.8984C29.3438 29.3159 28.8716 28.8438 28.2891 28.8438C27.7066 28.8438 27.2344 29.3159 27.2344 29.8984C27.2344 30.4809 27.7066 30.9531 28.2891 30.9531Z" fill="white"/>
</g>
<defs>
<clipPath id="clip0_1440_730">
<rect width="45" height="45" fill="white" transform="translate(19.5 19)"/>
</clipPath>
</defs>
</svg>
