<svg width="84" height="83" viewBox="0 0 84 83" fill="none" xmlns="http://www.w3.org/2000/svg">
<rect x="0.5" width="83" height="83" rx="41.5" fill="#FFB83B"/>
<g clip-path="url(#clip0_1434_756)">
<path d="M65.3999 25.9H59.4728L36.7999 18.3427V18.1001C36.7999 16.6641 35.636 15.5 34.2 15.5H27.2667C25.8308 15.5 24.6667 16.6641 24.6667 18.1V18.6685L19.0421 25.9H18.6001C17.1641 25.9 16 27.0641 16 28.5V30.2333C16 31.6692 17.1641 32.8333 18.6 32.8333H24.6666V60.5666H23.8C21.8855 60.5666 20.3334 62.1187 20.3334 64.0333V66.6333C20.3334 67.1119 20.7214 67.4999 21.2001 67.4999H40.2667C40.7453 67.4999 41.1333 67.1119 41.1333 66.6333V64.0333C41.1333 62.1187 39.5813 60.5666 37.6667 60.5666H36.8V32.8333H55V36.2999H48.0666C46.6307 36.2999 45.4666 37.464 45.4666 38.8999V39.926C44.9615 40.1046 44.5238 40.435 44.2135 40.8718C43.9033 41.3087 43.7355 41.8307 43.7333 42.3666V65.7666C43.7333 66.7239 44.5094 67.4999 45.4666 67.4999H66.2666C67.2239 67.4999 67.9999 66.7238 67.9999 65.7666V42.3666C67.9977 41.8307 67.83 41.3087 67.5197 40.8718C67.2094 40.435 66.7718 40.1046 66.2666 39.926V38.9C66.2666 37.4641 65.1025 36.3 63.6666 36.3H56.7332V32.8334H65.3999C66.8358 32.8334 67.9999 31.6693 67.9999 30.2334V28.5001C68 27.0641 66.8359 25.9 65.3999 25.9ZM52.4 65.7666V60.5666H59.3333V65.7666H52.4ZM66.2666 65.7666H61.0666V60.5666C61.0666 59.6093 60.2906 58.8333 59.3333 58.8333H52.4C51.4427 58.8333 50.6667 59.6094 50.6667 60.5666V65.7666H45.4667V42.3666C45.4667 41.8879 45.8547 41.4999 46.3334 41.4999H65.4C65.8787 41.4999 66.2667 41.8879 66.2667 42.3666L66.2666 65.7666ZM64.5333 38.9V39.7667H47.2V38.9C47.2 38.4214 47.588 38.0334 48.0666 38.0334H63.6666C64.1453 38.0334 64.5333 38.4214 64.5333 38.9ZM53.9937 25.9H36.7999V20.1688L53.9937 25.9ZM35.0666 23.9301L32.016 21.1333L35.0666 18.3383V23.9301ZM30.7333 19.9581L27.7598 17.2333H33.7068L30.7333 19.9581ZM29.4507 21.1333L26.4 23.9301V18.3383L29.4507 21.1333ZM30.7333 22.3103L34.6506 25.9H26.816L30.7333 22.3103ZM24.6667 21.493V25.8999H21.239L24.6667 21.493ZM26.4 34.8033L29.4507 37.6L26.4 40.3968V34.8033ZM30.7333 38.776L34.6506 42.3667L30.7333 45.9573L26.816 42.3667L30.7333 38.776ZM26.4 44.3366L29.4507 47.1334L26.4 49.9302V44.3366ZM30.7333 48.3094L34.6506 51.9L30.7333 55.4906L26.816 51.9L30.7333 48.3094ZM29.4507 56.6667L26.4 59.4634V53.87L29.4507 56.6667ZM30.7333 57.8427L33.7052 60.5666H27.7616L30.7333 57.8427ZM32.016 56.6667L35.0666 53.8699V59.4633L32.016 56.6667ZM35.0666 49.9301L32.016 47.1333L35.0666 44.3365V49.9301ZM35.0666 40.3967L32.016 37.5999L35.0666 34.8032V40.3967ZM30.7333 36.4239L26.816 32.8333H34.6506L30.7333 36.4239ZM39.4 64.0333V65.7666H22.0666V64.0333C22.0666 63.0759 22.8427 62.2999 23.7999 62.2999H37.6666C38.6239 62.2999 39.4 63.076 39.4 64.0333ZM66.2666 30.2333C66.2666 30.712 65.8786 31.1 65.3999 31.1H18.6C18.1213 31.1 17.7333 30.712 17.7333 30.2333V28.5C17.7333 28.0213 18.1213 27.6333 18.6 27.6333H65.3999C65.8786 27.6333 66.2666 28.0213 66.2666 28.5V30.2333Z" fill="white"/>
<path d="M53.2668 43.2333H48.9335C47.9762 43.2333 47.2002 44.0094 47.2002 44.9666V47.5666C47.2002 48.5239 47.9763 49.2999 48.9335 49.2999H53.2668C54.2242 49.2999 55.0001 48.5238 55.0001 47.5666V44.9666C55.0001 44.0093 54.2241 43.2333 53.2668 43.2333ZM48.9334 47.5666V44.9666H53.2667V47.5666H48.9334ZM62.8001 43.2333H58.4668C57.5095 43.2333 56.7335 44.0094 56.7335 44.9666V47.5666C56.7335 48.5239 57.5095 49.2999 58.4668 49.2999H62.8001C63.7574 49.2999 64.5334 48.5238 64.5334 47.5666V44.9666C64.5334 44.0093 63.7574 43.2333 62.8001 43.2333ZM58.4668 47.5666V44.9666H62.8001V47.5666H58.4668ZM53.2668 51.0332H48.9335C47.9762 51.0332 47.2002 51.8093 47.2002 52.7665V55.3665C47.2002 56.3239 47.9763 57.0999 48.9335 57.0999H53.2668C54.2242 57.0999 55.0001 56.3238 55.0001 55.3665V52.7665C55.0001 51.8093 54.2241 51.0332 53.2668 51.0332ZM48.9334 55.3666V52.7666H53.2667V55.3666H48.9334ZM62.8001 51.0332H58.4668C57.5095 51.0332 56.7335 51.8093 56.7335 52.7665V55.3665C56.7335 56.3239 57.5095 57.0999 58.4668 57.0999H62.8001C63.7574 57.0999 64.5334 56.3238 64.5334 55.3665V52.7665C64.5334 51.8093 63.7574 51.0332 62.8001 51.0332ZM58.4668 55.3666V52.7666H62.8001V55.3666H58.4668Z" fill="white"/>
</g>
<defs>
<clipPath id="clip0_1434_756">
<rect width="52" height="52" fill="white" transform="translate(16 15.5)"/>
</clipPath>
</defs>
</svg>
