<svg width="84" height="84" viewBox="0 0 84 84" fill="none" xmlns="http://www.w3.org/2000/svg">
<rect x="0.5" y="0.647705" width="83" height="83" rx="41.5" fill="#FFB83B"/>
<path fill-rule="evenodd" clip-rule="evenodd" d="M38.8159 17.934C40.2001 17.2049 41.8528 17.1961 43.2447 17.9105L63.943 28.5338C65.2222 29.1903 65.8593 30.6591 65.4646 32.0416C64.9429 33.8692 62.8802 34.7632 61.1898 33.8944L42.5575 24.3185C41.6102 23.8317 40.4828 23.848 39.5501 24.3622L22.2291 33.9092C20.6358 34.7874 18.6318 34.1634 17.8187 32.5359C17.0403 30.9778 17.6499 29.0833 19.1909 28.2715L38.8159 17.934ZM42.5141 19.3339C41.5862 18.8577 40.4844 18.8635 39.5616 19.3496L19.9366 29.6871C19.1656 30.0933 18.8605 31.0412 19.25 31.8208C19.6568 32.6351 20.6595 32.9473 21.4567 32.5079L38.7777 22.9609C40.1768 22.1897 41.8679 22.1652 43.2888 22.8955L61.9212 32.4714C62.714 32.8788 63.6814 32.4595 63.926 31.6024C64.1111 30.954 63.8124 30.2652 63.2124 29.9572L42.5141 19.3339ZM40.8031 26.5154C41.3356 26.2354 41.9729 26.24 42.5014 26.5276L59.1686 35.5997C59.7476 35.9149 60.108 36.5214 60.108 37.1807V56.0508C60.108 57.0449 59.3021 57.8508 58.308 57.8508H44.198C43.2039 57.8508 42.398 57.0449 42.398 56.0508V52.4696C42.398 51.4755 43.2039 50.6696 44.198 50.6696H46.6059C49.9581 50.6696 51.5219 49.5216 52.3125 48.224C53.1529 46.8446 53.2413 45.114 53.2413 43.718V38.5751C53.2413 38.0658 52.8397 37.6471 52.3308 37.6259C48.8848 37.4822 45.5351 38.79 43.0972 41.2299L42.3705 41.9572C41.9162 42.4119 41.2184 42.2959 40.8794 41.8538C40.5198 41.3849 40.1594 41.0263 39.8101 40.7428C38.7458 39.8793 37.2498 39.1123 35.64 38.5616C34.0315 38.0113 32.3666 37.6966 30.9841 37.6966C30.4719 37.6966 30.0566 38.1118 30.0566 38.624V43.718C30.0566 46.4066 30.655 48.0097 31.6724 48.9961C32.7014 49.9938 34.3157 50.5165 36.7173 50.6696H39.0999C40.094 50.6696 40.8999 51.4755 40.8999 52.4696V56.0508C40.8999 57.0449 40.094 57.8508 39.0999 57.8508H24.3703C23.3762 57.8508 22.5703 57.0449 22.5703 56.0508V37.1905C22.5703 36.5219 22.9408 35.9085 23.5325 35.5973L40.8031 26.5154ZM41.7364 27.9329C41.6777 27.901 41.6069 27.9005 41.5477 27.9316L24.2772 37.0134C24.2115 37.048 24.1703 37.1162 24.1703 37.1905V56.0508C24.1703 56.1612 24.2598 56.2508 24.3703 56.2508H39.0999C39.2104 56.2508 39.2999 56.1612 39.2999 56.0508V52.4696C39.2999 52.3591 39.2104 52.2696 39.0999 52.2696H36.692H36.667L36.6421 52.268C34.1004 52.1091 32.0045 51.5467 30.5586 50.1448C29.0975 48.7282 28.4566 46.6105 28.4566 43.718V38.624C28.4566 37.2281 29.5882 36.0966 30.9841 36.0966C32.5829 36.0966 34.4254 36.4551 36.1579 37.0477C37.8889 37.6399 39.5674 38.4855 40.8182 39.5004C41.1168 39.7427 41.416 40.0235 41.7118 40.3528L41.9654 40.099C44.7196 37.3425 48.504 35.8649 52.3975 36.0273C53.7633 36.0843 54.8413 37.2081 54.8413 38.5751V43.718C54.8413 45.1126 54.7747 47.2578 53.6789 49.0565C52.5331 50.9371 50.3793 52.2696 46.6059 52.2696H44.198C44.0875 52.2696 43.998 52.3591 43.998 52.4696V56.0508C43.998 56.1612 44.0875 56.2508 44.198 56.2508H58.308C58.4185 56.2508 58.508 56.1612 58.508 56.0508V37.1807C58.508 37.1075 58.468 37.0401 58.4036 37.0051L41.7364 27.9329ZM34.0196 41.7848C33.4309 41.6259 32.9403 42.0991 33.0517 42.6651C33.3161 44.0074 33.8468 45.39 34.7383 46.4103C35.6053 47.4024 36.8395 48.0867 38.6419 48.0408C39.0695 48.0299 39.3478 47.6854 39.3075 47.3285C39.092 45.4176 37.878 42.8267 34.0196 41.7848ZM31.4819 42.9742C31.135 41.2128 32.7353 39.7807 34.4367 40.2401C39.0166 41.4769 40.619 44.6803 40.8974 47.1492C41.0504 48.5061 39.9791 49.6072 38.6826 49.6403C36.3814 49.6989 34.6982 48.7959 33.5335 47.4631C32.3934 46.1583 31.7781 44.4783 31.4819 42.9742ZM50.29 42.6651C50.4015 42.0991 49.9109 41.6259 49.3222 41.7848C45.4638 42.8267 44.2498 45.4176 44.0343 47.3285C43.994 47.6854 44.2723 48.0299 44.6999 48.0408C46.5023 48.0867 47.7365 47.4024 48.6034 46.4103C49.495 45.39 50.0257 44.0074 50.29 42.6651ZM48.9051 40.2401C50.6065 39.7807 52.2068 41.2128 51.8599 42.9742C51.5636 44.4783 50.9484 46.1583 49.8083 47.4631C48.6435 48.7959 46.9604 49.6989 44.6592 49.6403C43.3627 49.6072 42.2913 48.5061 42.4444 47.1492C42.7227 44.6803 44.3252 41.4769 48.9051 40.2401ZM23.063 59.0413C21.08 59.0413 19.4724 60.6489 19.4724 62.6319C19.4724 64.615 21.08 66.2225 23.063 66.2225H59.6157C61.5988 66.2225 63.2063 64.615 63.2063 62.6319C63.2063 60.6489 61.5988 59.0413 59.6157 59.0413H23.063ZM21.0724 62.6319C21.0724 61.5326 21.9637 60.6413 23.063 60.6413H59.6157C60.7151 60.6413 61.6063 61.5326 61.6063 62.6319C61.6063 63.7313 60.7151 64.6225 59.6157 64.6225H23.063C21.9637 64.6225 21.0724 63.7313 21.0724 62.6319Z" fill="white"/>
</svg>
