<svg width="84" height="83" viewBox="0 0 84 83" fill="none" xmlns="http://www.w3.org/2000/svg">
<rect x="0.5" width="83" height="83" rx="41.5" fill="#FFB83B"/>
<path d="M18.9755 34.0718C18.1092 34.0718 17.4043 33.3671 17.4043 32.5006V27.0712C17.4043 26.2047 18.1092 25.5 18.9755 25.5H38.8572C39.7234 25.5 40.4284 26.2047 40.4284 27.0712V32.5006C40.4284 33.3671 39.7234 34.0718 38.8572 34.0718H18.9755ZM65.0239 34.0718C65.8901 34.0718 66.5951 33.3671 66.5951 32.5006V27.0712C66.5951 26.2047 65.8901 25.5 65.0239 25.5H45.1422C44.2759 25.5 43.571 26.2047 43.571 27.0712V32.5006C43.571 33.3671 44.2759 34.0718 45.1422 34.0718H65.0239ZM51.9404 45.7858C52.8067 45.7858 53.5116 45.0809 53.5116 44.2146V38.7854C53.5116 37.9189 52.8067 37.2142 51.9404 37.2142H32.0587C31.1925 37.2142 30.4875 37.9189 30.4875 38.7854V44.2148C30.4875 45.0811 31.1925 45.786 32.0587 45.786L51.9404 45.7858ZM25.7739 45.7858C26.6404 45.7858 27.3451 45.0811 27.3451 44.2146V38.7854C27.3451 37.9189 26.6404 37.2142 25.7739 37.2142H19.0903C18.2238 37.2142 17.5191 37.9189 17.5191 38.7854V44.2148C17.5191 45.0813 18.2238 45.786 19.0903 45.786L25.7739 45.7858ZM64.9091 45.7858C65.7755 45.7858 66.4803 45.0811 66.4803 44.2146V38.7854C66.4803 37.9189 65.7755 37.2142 64.9091 37.2142H58.2254C57.3589 37.2142 56.6542 37.9189 56.6542 38.7854V44.2148C56.6542 45.0813 57.3589 45.786 58.2254 45.786L64.9091 45.7858ZM38.8572 57.5C39.7234 57.5 40.4284 56.7953 40.4284 55.9288V50.4994C40.4284 49.6331 39.7234 48.9282 38.8572 48.9282H18.9755C18.1092 48.9282 17.4043 49.6331 17.4043 50.4994V55.9288C17.4043 56.7953 18.1092 57.5 18.9755 57.5H38.8572ZM65.0239 57.5C65.8901 57.5 66.5951 56.7953 66.5951 55.9288V50.4994C66.5951 49.6331 65.8901 48.9282 65.0239 48.9282H45.1422C44.2759 48.9282 43.571 49.6331 43.571 50.4994V55.9288C43.571 56.7953 44.2759 57.5 45.1422 57.5H65.0239Z" stroke="white" stroke-width="1.8"/>
</svg>
