<svg width="63" height="11" viewBox="0 0 63 11" fill="none" xmlns="http://www.w3.org/2000/svg">
<path d="M5.30979 0.58541C5.36966 0.401148 5.63034 0.401148 5.69021 0.58541L6.68992 3.66221C6.7167 3.74461 6.79349 3.80041 6.88014 3.80041H10.1153C10.309 3.80041 10.3896 4.04833 10.2328 4.16221L7.61555 6.06378C7.54545 6.11471 7.51612 6.20498 7.54289 6.28738L8.54261 9.36418C8.60248 9.54845 8.39158 9.70167 8.23484 9.58779L5.61756 7.68622C5.54746 7.63529 5.45254 7.63529 5.38244 7.68622L2.76516 9.58779C2.60842 9.70167 2.39752 9.54845 2.45739 9.36418L3.45711 6.28738C3.48388 6.20498 3.45455 6.11471 3.38445 6.06378L0.767169 4.16221C0.610426 4.04833 0.690981 3.80041 0.884726 3.80041H4.11986C4.20651 3.80041 4.2833 3.74461 4.31008 3.66221L5.30979 0.58541Z" fill="#FFB72B"/>
<path d="M18.3098 0.58541C18.3697 0.401148 18.6303 0.401148 18.6902 0.58541L19.6899 3.66221C19.7167 3.74461 19.7935 3.80041 19.8801 3.80041H23.1153C23.309 3.80041 23.3896 4.04833 23.2328 4.16221L20.6155 6.06378C20.5455 6.11471 20.5161 6.20498 20.5429 6.28738L21.5426 9.36418C21.6025 9.54845 21.3916 9.70167 21.2348 9.58779L18.6176 7.68622C18.5475 7.63529 18.4525 7.63529 18.3824 7.68622L15.7652 9.58779C15.6084 9.70167 15.3975 9.54845 15.4574 9.36418L16.4571 6.28738C16.4839 6.20498 16.4545 6.11471 16.3845 6.06378L13.7672 4.16221C13.6104 4.04833 13.691 3.80041 13.8847 3.80041H17.1199C17.2065 3.80041 17.2833 3.74461 17.3101 3.66221L18.3098 0.58541Z" fill="#FFB72B"/>
<path d="M31.3098 0.58541C31.3697 0.401148 31.6303 0.401148 31.6902 0.58541L32.6899 3.66221C32.7167 3.74461 32.7935 3.80041 32.8801 3.80041H36.1153C36.309 3.80041 36.3896 4.04833 36.2328 4.16221L33.6155 6.06378C33.5455 6.11471 33.5161 6.20498 33.5429 6.28738L34.5426 9.36418C34.6025 9.54845 34.3916 9.70167 34.2348 9.58779L31.6176 7.68622C31.5475 7.63529 31.4525 7.63529 31.3824 7.68622L28.7652 9.58779C28.6084 9.70167 28.3975 9.54845 28.4574 9.36418L29.4571 6.28738C29.4839 6.20498 29.4545 6.11471 29.3845 6.06378L26.7672 4.16221C26.6104 4.04833 26.691 3.80041 26.8847 3.80041H30.1199C30.2065 3.80041 30.2833 3.74461 30.3101 3.66221L31.3098 0.58541Z" fill="#FFB72B"/>
<path d="M44.3098 0.58541C44.3697 0.401148 44.6303 0.401148 44.6902 0.58541L45.6899 3.66221C45.7167 3.74461 45.7935 3.80041 45.8801 3.80041H49.1153C49.309 3.80041 49.3896 4.04833 49.2328 4.16221L46.6155 6.06378C46.5455 6.11471 46.5161 6.20498 46.5429 6.28738L47.5426 9.36418C47.6025 9.54845 47.3916 9.70167 47.2348 9.58779L44.6176 7.68622C44.5475 7.63529 44.4525 7.63529 44.3824 7.68622L41.7652 9.58779C41.6084 9.70167 41.3975 9.54845 41.4574 9.36418L42.4571 6.28738C42.4839 6.20498 42.4545 6.11471 42.3845 6.06378L39.7672 4.16221C39.6104 4.04833 39.691 3.80041 39.8847 3.80041H43.1199C43.2065 3.80041 43.2833 3.74461 43.3101 3.66221L44.3098 0.58541Z" fill="#FFB72B"/>
<path d="M57.3098 0.58541C57.3697 0.401148 57.6303 0.401148 57.6902 0.58541L58.6899 3.66221C58.7167 3.74461 58.7935 3.80041 58.8801 3.80041H62.1153C62.309 3.80041 62.3896 4.04833 62.2328 4.16221L59.6155 6.06378C59.5455 6.11471 59.5161 6.20498 59.5429 6.28738L60.5426 9.36418C60.6025 9.54845 60.3916 9.70167 60.2348 9.58779L57.6176 7.68622C57.5475 7.63529 57.4525 7.63529 57.3824 7.68622L54.7652 9.58779C54.6084 9.70167 54.3975 9.54845 54.4574 9.36418L55.4571 6.28738C55.4839 6.20498 55.4545 6.11471 55.3845 6.06378L52.7672 4.16221C52.6104 4.04833 52.691 3.80041 52.8847 3.80041H56.1199C56.2065 3.80041 56.2833 3.74461 56.3101 3.66221L57.3098 0.58541Z" fill="#FFB72B"/>
</svg>
