<svg width="155" height="25" viewBox="0 0 155 25" fill="none" xmlns="http://www.w3.org/2000/svg">
<path d="M20.88 3.06L13.2 24H8.1L0.42 3.06H4.92L10.68 19.71L16.41 3.06H20.88ZM25.3321 5.4C24.5921 5.4 23.9721 5.17 23.4721 4.71C22.9921 4.23 22.7521 3.64 22.7521 2.94C22.7521 2.24 22.9921 1.66 23.4721 1.2C23.9721 0.719999 24.5921 0.479999 25.3321 0.479999C26.0721 0.479999 26.6821 0.719999 27.1621 1.2C27.6621 1.66 27.9121 2.24 27.9121 2.94C27.9121 3.64 27.6621 4.23 27.1621 4.71C26.6821 5.17 26.0721 5.4 25.3321 5.4ZM27.4021 7.38V24H23.2021V7.38H27.4021ZM46.8057 15.33C46.8057 15.93 46.7657 16.47 46.6857 16.95H34.5357C34.6357 18.15 35.0557 19.09 35.7957 19.77C36.5357 20.45 37.4457 20.79 38.5257 20.79C40.0857 20.79 41.1957 20.12 41.8557 18.78H46.3857C45.9057 20.38 44.9857 21.7 43.6257 22.74C42.2657 23.76 40.5957 24.27 38.6157 24.27C37.0157 24.27 35.5757 23.92 34.2957 23.22C33.0357 22.5 32.0457 21.49 31.3257 20.19C30.6257 18.89 30.2757 17.39 30.2757 15.69C30.2757 13.97 30.6257 12.46 31.3257 11.16C32.0257 9.86 33.0057 8.86 34.2657 8.16C35.5257 7.46 36.9757 7.11 38.6157 7.11C40.1957 7.11 41.6057 7.45 42.8457 8.13C44.1057 8.81 45.0757 9.78 45.7557 11.04C46.4557 12.28 46.8057 13.71 46.8057 15.33ZM42.4557 14.13C42.4357 13.05 42.0457 12.19 41.2857 11.55C40.5257 10.89 39.5957 10.56 38.4957 10.56C37.4557 10.56 36.5757 10.88 35.8557 11.52C35.1557 12.14 34.7257 13.01 34.5657 14.13H42.4557ZM72.7154 7.38L67.8554 24H63.3254L60.2954 12.39L57.2654 24H52.7054L47.8154 7.38H52.0754L55.0154 20.04L58.1954 7.38H62.6354L65.7554 20.01L68.6954 7.38H72.7154ZM104.574 3.06V24H100.374V10.38L94.7643 24H91.5843L85.9443 10.38V24H81.7443V3.06H86.5143L93.1743 18.63L99.8343 3.06H104.574ZM115.911 24.27C114.311 24.27 112.871 23.92 111.591 23.22C110.311 22.5 109.301 21.49 108.561 20.19C107.841 18.89 107.481 17.39 107.481 15.69C107.481 13.99 107.851 12.49 108.591 11.19C109.351 9.89 110.381 8.89 111.681 8.19C112.981 7.47 114.431 7.11 116.031 7.11C117.631 7.11 119.081 7.47 120.381 8.19C121.681 8.89 122.701 9.89 123.441 11.19C124.201 12.49 124.581 13.99 124.581 15.69C124.581 17.39 124.191 18.89 123.411 20.19C122.651 21.49 121.611 22.5 120.291 23.22C118.991 23.92 117.531 24.27 115.911 24.27ZM115.911 20.61C116.671 20.61 117.381 20.43 118.041 20.07C118.721 19.69 119.261 19.13 119.661 18.39C120.061 17.65 120.261 16.75 120.261 15.69C120.261 14.11 119.841 12.9 119.001 12.06C118.181 11.2 117.171 10.77 115.971 10.77C114.771 10.77 113.761 11.2 112.941 12.06C112.141 12.9 111.741 14.11 111.741 15.69C111.741 17.27 112.131 18.49 112.911 19.35C113.711 20.19 114.711 20.61 115.911 20.61ZM131.666 9.96C132.206 9.08 132.906 8.39 133.766 7.89C134.646 7.39 135.646 7.14 136.766 7.14V11.55H135.656C134.336 11.55 133.336 11.86 132.656 12.48C131.996 13.1 131.666 14.18 131.666 15.72V24H127.466V7.38H131.666V9.96ZM154.848 15.33C154.848 15.93 154.808 16.47 154.728 16.95H142.578C142.678 18.15 143.098 19.09 143.838 19.77C144.578 20.45 145.488 20.79 146.568 20.79C148.128 20.79 149.238 20.12 149.898 18.78H154.428C153.948 20.38 153.028 21.7 151.668 22.74C150.308 23.76 148.638 24.27 146.658 24.27C145.058 24.27 143.618 23.92 142.338 23.22C141.078 22.5 140.088 21.49 139.368 20.19C138.668 18.89 138.318 17.39 138.318 15.69C138.318 13.97 138.668 12.46 139.368 11.16C140.068 9.86 141.048 8.86 142.308 8.16C143.568 7.46 145.018 7.11 146.658 7.11C148.238 7.11 149.648 7.45 150.888 8.13C152.148 8.81 153.118 9.78 153.798 11.04C154.498 12.28 154.848 13.71 154.848 15.33ZM150.498 14.13C150.478 13.05 150.088 12.19 149.328 11.55C148.568 10.89 147.638 10.56 146.538 10.56C145.498 10.56 144.618 10.88 143.898 11.52C143.198 12.14 142.768 13.01 142.608 14.13H150.498Z" fill="#FFB83B"/>
</svg>
