<svg width="52" height="52" viewBox="0 0 52 52" fill="none" xmlns="http://www.w3.org/2000/svg">
<path d="M1.79238 21.9716C2.68694 26.3461 5.19919 33.0086 12.0932 39.9027C18.9694 46.7789 25.6384 49.3041 30.0268 50.2133C30.5609 50.3209 31.1044 50.3751 31.6493 50.375C33.7878 50.375 35.8573 49.5341 37.401 47.9911L39.9141 45.4781C40.8818 44.5096 40.8834 42.9252 39.9141 41.9421L33.2898 35.3177C33.0428 35.075 32.7487 34.8856 32.4256 34.7612C32.1024 34.6368 31.7572 34.5801 31.4113 34.5946C31.0662 34.611 30.7283 34.6983 30.4185 34.8511C30.1087 35.0038 29.8337 35.2189 29.6108 35.4827L27.1724 38.389C26.9384 38.6653 26.5769 38.7757 26.2373 38.6612C25.8251 38.5255 25.4204 38.368 25.025 38.1891C23.5105 37.5147 21.1486 36.1554 18.4949 33.5018C15.8413 30.8482 14.4755 28.4806 13.8076 26.9726C13.6272 26.5736 13.4685 26.1651 13.3323 25.7489C13.2234 25.4215 13.3323 25.0591 13.6094 24.8243L16.5051 22.3868C16.771 22.1647 16.9878 21.8899 17.1419 21.5797C17.2961 21.2695 17.3841 20.9307 17.4005 20.5847C17.4153 20.2373 17.3577 19.8906 17.2314 19.5667C17.1051 19.2428 16.9129 18.9486 16.6668 18.7029L10.0449 12.0827C9.57665 11.6161 8.9425 11.354 8.28141 11.354C7.62031 11.354 6.98617 11.6161 6.51788 12.0827L4.00481 14.5958C3.05297 15.5451 2.35235 16.7163 1.96611 18.004C1.57988 19.2916 1.52017 20.6551 1.79238 21.9716ZM5.15369 15.7446L7.66675 13.2316C7.83575 13.0617 8.05837 12.9773 8.281 12.9773C8.50362 12.9773 8.72625 13.0618 8.89525 13.2308L15.5155 19.851C15.602 19.9364 15.6696 20.039 15.714 20.1522C15.7584 20.2653 15.7785 20.3865 15.7732 20.5079C15.7678 20.6294 15.7371 20.7483 15.6829 20.8571C15.6287 20.9659 15.5523 21.0622 15.4586 21.1396L12.5572 23.582C11.7699 24.2474 11.4676 25.2988 11.7845 26.2494C11.9129 26.6541 12.0924 27.118 12.3199 27.6299C13.0431 29.2638 14.5015 31.8078 17.3436 34.6491C20.1728 37.4782 22.7216 38.9423 24.362 39.6719C24.8747 39.9002 25.3394 40.0798 25.7319 40.2049C26.6947 40.5259 27.7453 40.2236 28.4099 39.4371L30.8514 36.5268C31.0115 36.3374 31.2358 36.2269 31.4819 36.2164C31.72 36.2107 31.967 36.296 32.1417 36.4691L38.7587 43.0861C39.0999 43.4322 39.1016 43.9888 38.7619 44.3284L36.2489 46.8414C35.4891 47.6024 34.5525 48.1631 33.523 48.4735C32.4935 48.7838 31.4031 48.8342 30.3493 48.62C26.1828 47.7571 19.8323 45.344 13.2397 38.7522C6.63081 32.1433 4.2315 25.8009 3.38163 21.6434C3.1638 20.5903 3.21151 19.4995 3.52044 18.4695C3.82938 17.4394 4.38982 16.5024 5.15125 15.743L5.15369 15.7446ZM25.4288 1.625C25.2133 1.625 25.0067 1.7106 24.8543 1.86298C24.7019 2.01535 24.6163 2.22201 24.6163 2.4375C24.6163 2.65299 24.7019 2.85965 24.8543 3.01202C25.0067 3.1644 25.2133 3.25 25.4288 3.25C38.2882 3.25 48.75 13.7118 48.75 26.5712C48.75 26.7867 48.8356 26.9933 48.988 27.1457C49.1404 27.2981 49.347 27.3837 49.5625 27.3837C49.778 27.3837 49.9847 27.2981 50.137 27.1457C50.2894 26.9933 50.375 26.7867 50.375 26.5712C50.375 12.8156 39.1844 1.625 25.4288 1.625Z" fill="#222222"/>
<path d="M25.4288 9.73621C25.2133 9.73621 25.0067 9.82181 24.8543 9.97418C24.7019 10.1266 24.6163 10.3332 24.6163 10.5487C24.6163 10.7642 24.7019 10.9709 24.8543 11.1232C25.0067 11.2756 25.2133 11.3612 25.4288 11.3612C33.8154 11.3612 40.6388 18.1846 40.6388 26.5712C40.6388 26.7867 40.7244 26.9934 40.8768 27.1457C41.0292 27.2981 41.2358 27.3837 41.4513 27.3837C41.6668 27.3837 41.8735 27.2981 42.0258 27.1457C42.1782 26.9934 42.2638 26.7867 42.2638 26.5712C42.2638 17.2884 34.7116 9.73621 25.4288 9.73621ZM24.6163 18.6599C24.6163 18.8754 24.7019 19.082 24.8543 19.2344C25.0067 19.3868 25.2133 19.4724 25.4288 19.4724C29.3426 19.4724 32.5268 22.6566 32.5268 26.5712C32.5268 26.7867 32.6124 26.9934 32.7648 27.1457C32.9172 27.2981 33.1238 27.3837 33.3393 27.3837C33.5548 27.3837 33.7615 27.2981 33.9138 27.1457C34.0662 26.9934 34.1518 26.7867 34.1518 26.5712C34.1518 21.7612 30.2388 17.8474 25.4288 17.8474C25.2133 17.8474 25.0067 17.933 24.8543 18.0854C24.7019 18.2377 24.6163 18.4444 24.6163 18.6599Z" fill="#222222"/>
</svg>
