<svg width="274" height="79" viewBox="0 0 274 79" fill="none" xmlns="http://www.w3.org/2000/svg">
<path fill-rule="evenodd" clip-rule="evenodd" d="M80.6527 78.2697V64.5852H38.0047C23.8997 64.5852 13.6757 53.7217 13.6757 38.9684C13.6757 24.1099 24.0048 13.667 38.0047 13.667H80.4161V0H38.0047C16.1463 0 0 15.279 0 38.3201C0 61.0458 16.1463 78.2697 38.0047 78.2697H80.6527Z" fill="white"/>
<path fill-rule="evenodd" clip-rule="evenodd" d="M235.817 78.2697H161.218C161.91 77.8492 162.576 77.3936 163.224 76.9205C163.995 76.3423 164.731 75.729 165.432 75.0632C168.489 72.1721 170.741 68.6152 172.116 64.5852H235.817C243.132 64.5852 247.223 60.5026 247.223 54.37C247.223 47.6942 243.132 44.2424 235.817 44.2424H199.853C185.109 44.2424 175.954 34.8858 175.954 21.9548C175.954 9.37414 184.46 0 200.072 0H256.265V13.667H200.072C193.826 13.667 190.164 17.329 190.164 23.2514C190.164 29.1737 193.94 32.7307 199.967 32.7307H235.817C251.639 32.7307 260.146 40.1599 260.146 55.3337C260.146 68.475 252.173 78.2697 235.817 78.2697Z" fill="white"/>
<rect x="259.41" width="13.7633" height="13.5969" fill="#3B9D3E"/>
<path d="M143.92 78.2643H85.0332V0H142.305C157.592 0 167.711 6.88984 167.711 20.2389C167.711 30.143 162.652 35.0951 156.838 36.9252C163.943 39.186 169.111 45.4299 169.111 54.5804C169.111 68.8984 159.207 78.2643 143.92 78.2643ZM143.382 44.2457H108.609V32.7267H142.413C150.164 32.7267 153.824 30.0354 153.824 23.2532C153.824 14.9639 147.257 13.672 137.138 13.672H98.7052V64.6999H138.322C148.118 64.6999 155.223 62.0085 155.223 54.3651C155.223 47.9059 151.025 44.2457 143.382 44.2457Z" fill="white"/>
</svg>
