<svg width="353" height="127" viewBox="0 0 353 127" fill="none" xmlns="http://www.w3.org/2000/svg">
<path fill-rule="evenodd" clip-rule="evenodd" d="M105.439 99.4123V82.0313H51.2708C33.3556 82.0313 20.3699 68.2333 20.3699 49.4947C20.3699 30.6226 33.4892 17.3588 51.2708 17.3588H105.139V0H51.2708C23.5079 0 3.00006 19.4062 3.00006 48.6713C3.00006 77.5358 23.5079 99.4123 51.2708 99.4123H105.439Z" fill="#001E30"/>
<path fill-rule="evenodd" clip-rule="evenodd" d="M302.517 99.4123H207.767C208.646 98.8782 209.491 98.2995 210.315 97.6987C211.294 96.9643 212.229 96.1853 213.119 95.3397C217.002 91.6676 219.862 87.1499 221.609 82.0313H302.517C311.808 82.0313 317.005 76.8459 317.005 69.0567C317.005 60.5776 311.808 56.1934 302.517 56.1934H256.839C238.111 56.1934 226.483 44.3093 226.483 27.8853C226.483 11.9063 237.288 0 257.117 0H328.488V17.3588H257.117C249.183 17.3588 244.532 22.01 244.532 29.5321C244.532 37.0543 249.328 41.572 256.983 41.572H302.517C322.613 41.572 333.417 51.008 333.417 70.2807C333.417 86.9718 323.292 99.4123 302.517 99.4123Z" fill="#001E30"/>
<rect x="332.483" width="17.4812" height="17.2697" fill="#3B9D3E"/>
<path d="M185.796 99.4054H111.003V0H183.745C203.161 0 216.014 8.75095 216.014 25.7059C216.014 38.2854 209.588 44.5752 202.204 46.8996C211.229 49.7711 217.792 57.7016 217.792 69.324C217.792 87.5095 205.212 99.4054 185.796 99.4054ZM185.112 56.1975H140.947V41.567H183.882C193.727 41.567 198.376 38.1487 198.376 29.5345C198.376 19.006 190.035 17.3652 177.182 17.3652H128.368V82.1769H178.686C191.129 82.1769 200.153 78.7586 200.153 69.0505C200.153 60.8465 194.821 56.1975 185.112 56.1975Z" fill="#001E30"/>
<path d="M1.36791 121V107.057H3.70791L8.52441 119.42L13.3214 107.057H15.6614V121H13.9844V109.846L9.61641 121H7.41291L3.04491 109.846V121H1.36791ZM16.8465 123.126L21.6825 106.336H23.496L18.66 123.126H16.8465ZM23.4961 117.568H25.2121C25.2641 118.218 25.5371 118.738 26.0311 119.128C26.5251 119.518 27.2661 119.713 28.2541 119.713C28.6181 119.713 28.9561 119.687 29.2681 119.635C29.5801 119.57 29.8531 119.472 30.0871 119.342C30.3211 119.212 30.5031 119.05 30.6331 118.855C30.7761 118.647 30.8476 118.4 30.8476 118.114C30.8476 117.815 30.7696 117.574 30.6136 117.392C30.4706 117.197 30.2626 117.041 29.9896 116.924C29.7296 116.794 29.4111 116.697 29.0341 116.632C28.6701 116.554 28.2736 116.482 27.8446 116.417C27.3636 116.339 26.8761 116.248 26.3821 116.144C25.9011 116.027 25.4656 115.865 25.0756 115.657C24.6856 115.449 24.3671 115.169 24.1201 114.818C23.8861 114.467 23.7691 114.012 23.7691 113.453C23.7691 112.972 23.8601 112.537 24.0421 112.147C24.2371 111.757 24.5101 111.425 24.8611 111.153C25.2121 110.866 25.6411 110.645 26.1481 110.489C26.6551 110.333 27.2271 110.256 27.8641 110.256C28.5531 110.256 29.1641 110.347 29.6971 110.528C30.2431 110.71 30.7046 110.957 31.0816 111.269C31.4586 111.581 31.7576 111.952 31.9786 112.381C32.1996 112.797 32.3361 113.252 32.3881 113.746H30.6721C30.5941 113.135 30.3081 112.654 29.8141 112.303C29.3201 111.952 28.6636 111.776 27.8446 111.776C27.4546 111.776 27.1101 111.815 26.8111 111.893C26.5251 111.971 26.2846 112.082 26.0896 112.225C25.8946 112.355 25.7451 112.511 25.6411 112.693C25.5371 112.875 25.4851 113.076 25.4851 113.297C25.4851 113.583 25.5631 113.817 25.7191 113.999C25.8751 114.181 26.0896 114.331 26.3626 114.448C26.6356 114.565 26.9476 114.662 27.2986 114.74C27.6496 114.818 28.0136 114.89 28.3906 114.955C28.9236 115.046 29.4371 115.15 29.9311 115.267C30.4381 115.384 30.8866 115.553 31.2766 115.774C31.6666 115.982 31.9786 116.268 32.2126 116.632C32.4466 116.983 32.5636 117.451 32.5636 118.036C32.5636 118.582 32.4531 119.056 32.2321 119.459C32.0111 119.849 31.7056 120.181 31.3156 120.454C30.9256 120.714 30.4641 120.909 29.9311 121.039C29.4111 121.169 28.8521 121.234 28.2541 121.234C27.5261 121.234 26.8696 121.143 26.2846 120.961C25.7126 120.779 25.2186 120.525 24.8026 120.2C24.3996 119.875 24.0876 119.492 23.8666 119.05C23.6456 118.595 23.5221 118.101 23.4961 117.568ZM37.3096 114.038C37.3096 112.933 37.4656 111.939 37.7776 111.055C38.0896 110.158 38.5251 109.397 39.0841 108.773C39.6561 108.149 40.3386 107.668 41.1316 107.33C41.9376 106.992 42.8281 106.823 43.8031 106.823C44.6351 106.823 45.4021 106.94 46.1041 107.174C46.8061 107.408 47.4236 107.753 47.9566 108.208C48.5026 108.65 48.9576 109.189 49.3216 109.826C49.6986 110.463 49.9651 111.185 50.1211 111.991H48.3271C48.0411 110.847 47.5016 109.963 46.7086 109.339C45.9286 108.702 44.9536 108.383 43.7836 108.383C43.0816 108.383 42.4381 108.513 41.8531 108.773C41.2811 109.033 40.7871 109.41 40.3711 109.904C39.9551 110.385 39.6301 110.977 39.3961 111.679C39.1751 112.368 39.0646 113.154 39.0646 114.038C39.0646 114.896 39.1751 115.676 39.3961 116.378C39.6301 117.08 39.9551 117.678 40.3711 118.172C40.7871 118.653 41.2811 119.024 41.8531 119.284C42.4381 119.544 43.0881 119.674 43.8031 119.674C45.0251 119.674 46.0391 119.329 46.8451 118.64C47.6511 117.938 48.1711 116.963 48.4051 115.715H50.1991C50.0691 116.573 49.8221 117.347 49.4581 118.036C49.1071 118.712 48.6521 119.29 48.0931 119.771C47.5471 120.239 46.9101 120.603 46.1821 120.863C45.4671 121.11 44.6741 121.234 43.8031 121.234C42.8281 121.234 41.9376 121.071 41.1316 120.746C40.3386 120.408 39.6561 119.927 39.0841 119.303C38.5251 118.679 38.0896 117.925 37.7776 117.041C37.4656 116.157 37.3096 115.156 37.3096 114.038ZM51.6753 121V106.667H53.3523V112.147C53.4953 111.848 53.6773 111.581 53.8983 111.347C54.1193 111.113 54.3728 110.918 54.6588 110.762C54.9448 110.593 55.2568 110.47 55.5948 110.392C55.9458 110.301 56.3163 110.256 56.7063 110.256C57.2913 110.256 57.8178 110.347 58.2858 110.528C58.7538 110.71 59.1503 110.977 59.4753 111.328C59.8003 111.666 60.0473 112.082 60.2163 112.576C60.3983 113.07 60.4893 113.622 60.4893 114.233V121H58.8123V114.857C58.8123 114.35 58.7603 113.908 58.6563 113.531C58.5523 113.141 58.3963 112.816 58.1883 112.556C57.9803 112.296 57.7203 112.101 57.4083 111.971C57.1093 111.841 56.7518 111.776 56.3358 111.776C55.8938 111.776 55.4843 111.854 55.1073 112.01C54.7433 112.153 54.4313 112.361 54.1713 112.634C53.9113 112.894 53.7098 113.213 53.5668 113.59C53.4238 113.967 53.3523 114.389 53.3523 114.857V121H51.6753ZM61.8941 115.735C61.8941 114.916 62.0111 114.175 62.2451 113.512C62.4921 112.836 62.8301 112.257 63.2591 111.776C63.7011 111.295 64.2341 110.925 64.8581 110.665C65.4821 110.392 66.1711 110.256 66.9251 110.256C67.6661 110.256 68.3356 110.385 68.9336 110.645C69.5446 110.892 70.0646 111.243 70.4936 111.698C70.9356 112.153 71.2736 112.706 71.5076 113.356C71.7416 113.993 71.8586 114.701 71.8586 115.481V116.32H63.6296C63.6816 116.827 63.7921 117.295 63.9611 117.724C64.1431 118.14 64.3706 118.497 64.6436 118.796C64.9296 119.082 65.2676 119.31 65.6576 119.479C66.0606 119.635 66.5026 119.713 66.9836 119.713C67.3606 119.713 67.6986 119.667 67.9976 119.576C68.3096 119.485 68.5891 119.355 68.8361 119.186C69.0831 119.004 69.2976 118.79 69.4796 118.543C69.6616 118.283 69.8111 117.997 69.9281 117.685H71.7026C71.4036 118.777 70.8381 119.641 70.0061 120.278C69.1741 120.915 68.1536 121.234 66.9446 121.234C66.1776 121.234 65.4821 121.104 64.8581 120.844C64.2341 120.571 63.7011 120.194 63.2591 119.713C62.8301 119.219 62.4921 118.64 62.2451 117.977C62.0111 117.301 61.8941 116.554 61.8941 115.735ZM63.6686 114.916H70.1036C70.0516 114.435 69.9476 114.006 69.7916 113.629C69.6356 113.239 69.4211 112.907 69.1481 112.634C68.8881 112.361 68.5696 112.153 68.1926 112.01C67.8286 111.854 67.4126 111.776 66.9446 111.776C66.4766 111.776 66.0541 111.854 65.6771 112.01C65.3131 112.153 64.9881 112.361 64.7021 112.634C64.4291 112.907 64.2016 113.239 64.0196 113.629C63.8506 114.006 63.7336 114.435 63.6686 114.916ZM73.7754 117.529V112.01H72.0204V110.489H73.7754V107.779H75.4524V110.489H79.3914V112.01H75.4524V117.587C75.4524 117.964 75.4914 118.289 75.5694 118.562C75.6474 118.822 75.7709 119.037 75.9399 119.206C76.1219 119.375 76.3494 119.498 76.6224 119.576C76.9084 119.654 77.2594 119.693 77.6754 119.693C77.8964 119.693 78.1564 119.68 78.4554 119.654C78.7544 119.628 79.0664 119.583 79.3914 119.518V121.039C78.9884 121.104 78.6179 121.15 78.2799 121.176C77.9549 121.215 77.6494 121.234 77.3634 121.234C76.7524 121.234 76.2194 121.156 75.7644 121C75.3224 120.857 74.9519 120.636 74.6529 120.337C74.3539 120.025 74.1329 119.635 73.9899 119.167C73.8469 118.699 73.7754 118.153 73.7754 117.529ZM80.4025 118.25C80.4025 117.418 80.682 116.755 81.241 116.261C81.813 115.754 82.71 115.397 83.932 115.189L87.91 114.506V114.409C87.91 113.551 87.663 112.901 87.169 112.459C86.688 112.004 86.012 111.776 85.141 111.776C84.283 111.776 83.6135 111.984 83.1325 112.4C82.6515 112.803 82.3525 113.375 82.2355 114.116H80.5195C80.5715 113.544 80.7145 113.024 80.9485 112.556C81.1825 112.088 81.4945 111.685 81.8845 111.347C82.2875 110.996 82.762 110.73 83.308 110.548C83.867 110.353 84.491 110.256 85.18 110.256C86.597 110.256 87.689 110.639 88.456 111.406C89.236 112.16 89.626 113.206 89.626 114.545V121H88.105L88.0465 119.323C87.8905 119.596 87.676 119.849 87.403 120.083C87.143 120.317 86.831 120.519 86.467 120.688C86.116 120.857 85.726 120.987 85.297 121.078C84.868 121.182 84.426 121.234 83.971 121.234C83.451 121.234 82.97 121.169 82.528 121.039C82.086 120.909 81.709 120.72 81.397 120.473C81.085 120.213 80.838 119.901 80.656 119.537C80.487 119.16 80.4025 118.731 80.4025 118.25ZM82.1575 118.172C82.1575 118.718 82.359 119.121 82.762 119.381C83.178 119.641 83.711 119.771 84.361 119.771C84.907 119.771 85.3945 119.693 85.8235 119.537C86.2655 119.381 86.636 119.167 86.935 118.894C87.247 118.608 87.4875 118.276 87.6565 117.899C87.8255 117.522 87.91 117.113 87.91 116.671V115.91L84.166 116.573C83.399 116.703 82.8725 116.898 82.5865 117.158C82.3005 117.418 82.1575 117.756 82.1575 118.172ZM91.3613 121V110.489H92.8823L92.9408 112.381C93.0708 112.043 93.2463 111.744 93.4673 111.484C93.6883 111.224 93.9418 111.003 94.2278 110.821C94.5268 110.639 94.8583 110.502 95.2223 110.411C95.5863 110.307 95.9763 110.256 96.3923 110.256C96.9773 110.256 97.5038 110.347 97.9718 110.528C98.4398 110.71 98.8363 110.977 99.1613 111.328C99.4863 111.666 99.7333 112.082 99.9023 112.576C100.084 113.07 100.175 113.622 100.175 114.233V121H98.4983V114.857C98.4983 114.35 98.4463 113.908 98.3423 113.531C98.2383 113.141 98.0823 112.816 97.8743 112.556C97.6663 112.296 97.4063 112.101 97.0943 111.971C96.7953 111.841 96.4378 111.776 96.0218 111.776C95.5798 111.776 95.1703 111.854 94.7933 112.01C94.4293 112.153 94.1173 112.361 93.8573 112.634C93.5973 112.894 93.3958 113.213 93.2528 113.59C93.1098 113.967 93.0383 114.389 93.0383 114.857V121H91.3613ZM101.911 121V106.667H103.549V115.462L109.224 110.489H111.466L106.689 114.662L111.642 121H109.594L105.499 115.696L103.549 117.451V121H101.911ZM111.868 117.256V110.489H113.545V116.632C113.545 117.139 113.597 117.587 113.701 117.977C113.805 118.354 113.961 118.673 114.169 118.933C114.377 119.193 114.631 119.388 114.93 119.518C115.242 119.648 115.606 119.713 116.022 119.713C116.464 119.713 116.867 119.641 117.231 119.498C117.608 119.342 117.926 119.134 118.186 118.874C118.446 118.601 118.648 118.276 118.791 117.899C118.934 117.522 119.005 117.1 119.005 116.632V110.489H120.682V121H119.161L119.103 119.108C118.973 119.446 118.797 119.745 118.576 120.005C118.355 120.265 118.095 120.486 117.796 120.668C117.51 120.85 117.185 120.987 116.821 121.078C116.457 121.182 116.067 121.234 115.651 121.234C115.066 121.234 114.54 121.143 114.072 120.961C113.604 120.779 113.207 120.519 112.882 120.181C112.557 119.83 112.304 119.407 112.122 118.913C111.953 118.419 111.868 117.867 111.868 117.256ZM122.477 121V110.489H123.998L124.057 112.361C124.187 112.023 124.356 111.724 124.564 111.464C124.772 111.204 125.012 110.99 125.285 110.821C125.571 110.639 125.883 110.502 126.221 110.411C126.559 110.307 126.923 110.256 127.313 110.256C127.729 110.256 128.106 110.307 128.444 110.411C128.795 110.515 129.107 110.665 129.38 110.86C129.666 111.042 129.913 111.276 130.121 111.562C130.329 111.835 130.498 112.147 130.628 112.498C130.745 112.147 130.908 111.835 131.116 111.562C131.337 111.276 131.59 111.042 131.876 110.86C132.162 110.665 132.481 110.515 132.832 110.411C133.196 110.307 133.586 110.256 134.002 110.256C134.561 110.256 135.061 110.347 135.503 110.528C135.958 110.71 136.342 110.977 136.654 111.328C136.979 111.666 137.226 112.082 137.395 112.576C137.564 113.07 137.648 113.622 137.648 114.233V121H135.971V114.857C135.971 114.35 135.919 113.908 135.815 113.531C135.724 113.141 135.581 112.816 135.386 112.556C135.204 112.296 134.97 112.101 134.684 111.971C134.398 111.841 134.06 111.776 133.67 111.776C133.254 111.776 132.877 111.854 132.539 112.01C132.201 112.153 131.909 112.361 131.662 112.634C131.415 112.894 131.226 113.213 131.096 113.59C130.966 113.967 130.901 114.389 130.901 114.857V121H129.224V114.857C129.224 114.35 129.172 113.908 129.068 113.531C128.977 113.141 128.834 112.816 128.639 112.556C128.457 112.296 128.223 112.101 127.937 111.971C127.651 111.841 127.313 111.776 126.923 111.776C126.507 111.776 126.13 111.854 125.792 112.01C125.454 112.153 125.162 112.361 124.915 112.634C124.668 112.894 124.479 113.213 124.349 113.59C124.219 113.967 124.154 114.389 124.154 114.857V121H122.477ZM138.998 118.25C138.998 117.418 139.277 116.755 139.836 116.261C140.408 115.754 141.305 115.397 142.527 115.189L146.505 114.506V114.409C146.505 113.551 146.258 112.901 145.764 112.459C145.283 112.004 144.607 111.776 143.736 111.776C142.878 111.776 142.209 111.984 141.728 112.4C141.247 112.803 140.948 113.375 140.831 114.116H139.115C139.167 113.544 139.31 113.024 139.544 112.556C139.778 112.088 140.09 111.685 140.48 111.347C140.883 110.996 141.357 110.73 141.903 110.548C142.462 110.353 143.086 110.256 143.775 110.256C145.192 110.256 146.284 110.639 147.051 111.406C147.831 112.16 148.221 113.206 148.221 114.545V121H146.7L146.642 119.323C146.486 119.596 146.271 119.849 145.998 120.083C145.738 120.317 145.426 120.519 145.062 120.688C144.711 120.857 144.321 120.987 143.892 121.078C143.463 121.182 143.021 121.234 142.566 121.234C142.046 121.234 141.565 121.169 141.123 121.039C140.681 120.909 140.304 120.72 139.992 120.473C139.68 120.213 139.433 119.901 139.251 119.537C139.082 119.16 138.998 118.731 138.998 118.25ZM140.753 118.172C140.753 118.718 140.954 119.121 141.357 119.381C141.773 119.641 142.306 119.771 142.956 119.771C143.502 119.771 143.99 119.693 144.419 119.537C144.861 119.381 145.231 119.167 145.53 118.894C145.842 118.608 146.083 118.276 146.252 117.899C146.421 117.522 146.505 117.113 146.505 116.671V115.91L142.761 116.573C141.994 116.703 141.468 116.898 141.182 117.158C140.896 117.418 140.753 117.756 140.753 118.172ZM149.957 121V110.489H151.478L151.536 112.615C151.744 111.874 152.082 111.334 152.55 110.996C153.018 110.658 153.61 110.489 154.325 110.489H155.514V112.244H154.227C153.798 112.244 153.421 112.309 153.096 112.439C152.771 112.569 152.498 112.758 152.277 113.005C152.069 113.239 151.907 113.531 151.79 113.882C151.686 114.22 151.634 114.604 151.634 115.033V121H149.957ZM160.376 121V107.057H165.719C167.461 107.057 168.748 107.356 169.58 107.954C170.412 108.552 170.828 109.501 170.828 110.801C170.828 111.204 170.763 111.575 170.633 111.913C170.516 112.251 170.341 112.55 170.107 112.81C169.873 113.07 169.587 113.284 169.249 113.453C168.911 113.622 168.527 113.739 168.098 113.804C169.008 113.934 169.756 114.285 170.341 114.857C170.939 115.416 171.238 116.183 171.238 117.158C171.238 118.445 170.822 119.407 169.99 120.044C169.158 120.681 167.942 121 166.343 121H160.376ZM162.053 119.44H166.304C167.331 119.44 168.118 119.238 168.664 118.835C169.21 118.432 169.483 117.847 169.483 117.08C169.483 116.313 169.21 115.722 168.664 115.306C168.118 114.877 167.331 114.662 166.304 114.662H162.053V119.44ZM162.053 113.141H165.68C166.772 113.141 167.611 112.946 168.196 112.556C168.781 112.153 169.073 111.588 169.073 110.86C169.073 110.106 168.787 109.547 168.215 109.183C167.656 108.806 166.811 108.617 165.68 108.617H162.053V113.141ZM172.598 121V106.667H174.275V112.147C174.418 111.848 174.6 111.581 174.821 111.347C175.042 111.113 175.296 110.918 175.582 110.762C175.868 110.593 176.18 110.47 176.518 110.392C176.869 110.301 177.239 110.256 177.629 110.256C178.214 110.256 178.741 110.347 179.209 110.528C179.677 110.71 180.073 110.977 180.398 111.328C180.723 111.666 180.97 112.082 181.139 112.576C181.321 113.07 181.412 113.622 181.412 114.233V121H179.735V114.857C179.735 114.35 179.683 113.908 179.579 113.531C179.475 113.141 179.319 112.816 179.111 112.556C178.903 112.296 178.643 112.101 178.331 111.971C178.032 111.841 177.675 111.776 177.259 111.776C176.817 111.776 176.407 111.854 176.03 112.01C175.666 112.153 175.354 112.361 175.094 112.634C174.834 112.894 174.633 113.213 174.49 113.59C174.347 113.967 174.275 114.389 174.275 114.857V121H172.598ZM182.758 118.25C182.758 117.418 183.038 116.755 183.597 116.261C184.169 115.754 185.066 115.397 186.288 115.189L190.266 114.506V114.409C190.266 113.551 190.019 112.901 189.525 112.459C189.044 112.004 188.368 111.776 187.497 111.776C186.639 111.776 185.969 111.984 185.488 112.4C185.007 112.803 184.708 113.375 184.591 114.116H182.875C182.927 113.544 183.07 113.024 183.304 112.556C183.538 112.088 183.85 111.685 184.24 111.347C184.643 110.996 185.118 110.73 185.664 110.548C186.223 110.353 186.847 110.256 187.536 110.256C188.953 110.256 190.045 110.639 190.812 111.406C191.592 112.16 191.982 113.206 191.982 114.545V121H190.461L190.402 119.323C190.246 119.596 190.032 119.849 189.759 120.083C189.499 120.317 189.187 120.519 188.823 120.688C188.472 120.857 188.082 120.987 187.653 121.078C187.224 121.182 186.782 121.234 186.327 121.234C185.807 121.234 185.326 121.169 184.884 121.039C184.442 120.909 184.065 120.72 183.753 120.473C183.441 120.213 183.194 119.901 183.012 119.537C182.843 119.16 182.758 118.731 182.758 118.25ZM184.513 118.172C184.513 118.718 184.715 119.121 185.118 119.381C185.534 119.641 186.067 119.771 186.717 119.771C187.263 119.771 187.75 119.693 188.179 119.537C188.621 119.381 188.992 119.167 189.291 118.894C189.603 118.608 189.843 118.276 190.012 117.899C190.181 117.522 190.266 117.113 190.266 116.671V115.91L186.522 116.573C185.755 116.703 185.228 116.898 184.942 117.158C184.656 117.418 184.513 117.756 184.513 118.172ZM193.776 120.961H195.492C195.531 121.351 195.635 121.689 195.804 121.975C195.986 122.261 196.213 122.495 196.486 122.677C196.759 122.872 197.071 123.015 197.422 123.106C197.773 123.197 198.137 123.243 198.514 123.243C198.93 123.243 199.32 123.184 199.684 123.067C200.048 122.95 200.367 122.755 200.64 122.482C200.913 122.222 201.127 121.878 201.283 121.449C201.452 121.033 201.537 120.519 201.537 119.908V118.738C201.225 119.349 200.75 119.823 200.113 120.161C199.476 120.486 198.768 120.649 197.988 120.649C197.299 120.649 196.668 120.525 196.096 120.278C195.537 120.018 195.056 119.661 194.653 119.206C194.25 118.751 193.938 118.205 193.717 117.568C193.496 116.931 193.386 116.222 193.386 115.442C193.386 114.662 193.496 113.954 193.717 113.317C193.938 112.68 194.25 112.134 194.653 111.679C195.056 111.224 195.537 110.873 196.096 110.626C196.668 110.379 197.292 110.256 197.968 110.256C198.761 110.256 199.489 110.424 200.152 110.762C200.828 111.1 201.322 111.607 201.634 112.283L201.693 110.489H203.214V119.908C203.214 120.779 203.09 121.52 202.843 122.131C202.609 122.742 202.278 123.243 201.849 123.633C201.433 124.023 200.932 124.309 200.347 124.491C199.775 124.673 199.158 124.764 198.495 124.764C197.884 124.764 197.305 124.686 196.759 124.53C196.213 124.387 195.726 124.159 195.297 123.847C194.881 123.535 194.536 123.139 194.263 122.658C194.003 122.177 193.841 121.611 193.776 120.961ZM195.102 115.462C195.102 116.047 195.167 116.567 195.297 117.022C195.44 117.477 195.648 117.86 195.921 118.172C196.194 118.484 196.525 118.725 196.915 118.894C197.305 119.05 197.754 119.128 198.261 119.128C198.781 119.128 199.242 119.043 199.645 118.874C200.061 118.705 200.412 118.465 200.698 118.153C200.984 117.841 201.199 117.457 201.342 117.002C201.498 116.547 201.576 116.034 201.576 115.462C201.576 114.89 201.498 114.376 201.342 113.921C201.199 113.466 200.984 113.083 200.698 112.771C200.412 112.446 200.061 112.199 199.645 112.03C199.242 111.861 198.781 111.776 198.261 111.776C197.754 111.776 197.305 111.861 196.915 112.03C196.525 112.186 196.194 112.42 195.921 112.732C195.648 113.044 195.44 113.434 195.297 113.902C195.167 114.357 195.102 114.877 195.102 115.462ZM207.252 121L203.995 110.489H205.75L208.305 119.284L210.84 110.489H212.79L215.364 119.284L217.899 110.489H219.654L216.417 121H214.33L211.815 112.673L209.338 121H207.252ZM219.759 118.25C219.759 117.418 220.038 116.755 220.597 116.261C221.169 115.754 222.066 115.397 223.288 115.189L227.266 114.506V114.409C227.266 113.551 227.019 112.901 226.525 112.459C226.044 112.004 225.368 111.776 224.497 111.776C223.639 111.776 222.97 111.984 222.489 112.4C222.008 112.803 221.709 113.375 221.592 114.116H219.876C219.928 113.544 220.071 113.024 220.305 112.556C220.539 112.088 220.851 111.685 221.241 111.347C221.644 110.996 222.118 110.73 222.664 110.548C223.223 110.353 223.847 110.256 224.536 110.256C225.953 110.256 227.045 110.639 227.812 111.406C228.592 112.16 228.982 113.206 228.982 114.545V121H227.461L227.403 119.323C227.247 119.596 227.032 119.849 226.759 120.083C226.499 120.317 226.187 120.519 225.823 120.688C225.472 120.857 225.082 120.987 224.653 121.078C224.224 121.182 223.782 121.234 223.327 121.234C222.807 121.234 222.326 121.169 221.884 121.039C221.442 120.909 221.065 120.72 220.753 120.473C220.441 120.213 220.194 119.901 220.012 119.537C219.843 119.16 219.759 118.731 219.759 118.25ZM221.514 118.172C221.514 118.718 221.715 119.121 222.118 119.381C222.534 119.641 223.067 119.771 223.717 119.771C224.263 119.771 224.751 119.693 225.18 119.537C225.622 119.381 225.992 119.167 226.291 118.894C226.603 118.608 226.844 118.276 227.013 117.899C227.182 117.522 227.266 117.113 227.266 116.671V115.91L223.522 116.573C222.755 116.703 222.229 116.898 221.943 117.158C221.657 117.418 221.514 117.756 221.514 118.172ZM230.718 121V110.489H232.239L232.297 112.381C232.427 112.043 232.603 111.744 232.824 111.484C233.045 111.224 233.298 111.003 233.584 110.821C233.883 110.639 234.215 110.502 234.579 110.411C234.943 110.307 235.333 110.256 235.749 110.256C236.334 110.256 236.86 110.347 237.328 110.528C237.796 110.71 238.193 110.977 238.518 111.328C238.843 111.666 239.09 112.082 239.259 112.576C239.441 113.07 239.532 113.622 239.532 114.233V121H237.855V114.857C237.855 114.35 237.803 113.908 237.699 113.531C237.595 113.141 237.439 112.816 237.231 112.556C237.023 112.296 236.763 112.101 236.451 111.971C236.152 111.841 235.794 111.776 235.378 111.776C234.936 111.776 234.527 111.854 234.15 112.01C233.786 112.153 233.474 112.361 233.214 112.634C232.954 112.894 232.752 113.213 232.609 113.59C232.466 113.967 232.395 114.389 232.395 114.857V121H230.718ZM244.434 116.183H246.17C246.222 116.729 246.352 117.223 246.56 117.665C246.781 118.094 247.067 118.458 247.418 118.757C247.769 119.056 248.185 119.284 248.666 119.44C249.147 119.596 249.693 119.674 250.304 119.674C250.811 119.674 251.272 119.622 251.688 119.518C252.104 119.401 252.455 119.238 252.741 119.03C253.027 118.809 253.248 118.549 253.404 118.25C253.56 117.951 253.638 117.613 253.638 117.236C253.638 116.781 253.534 116.411 253.326 116.125C253.131 115.839 252.852 115.605 252.488 115.423C252.137 115.241 251.721 115.091 251.24 114.974C250.759 114.857 250.239 114.74 249.68 114.623C249.082 114.506 248.49 114.376 247.905 114.233C247.32 114.077 246.794 113.863 246.326 113.59C245.858 113.317 245.481 112.959 245.195 112.517C244.909 112.075 244.766 111.503 244.766 110.801C244.766 110.203 244.876 109.664 245.097 109.183C245.318 108.689 245.637 108.266 246.053 107.915C246.482 107.564 246.995 107.298 247.593 107.116C248.204 106.921 248.887 106.823 249.641 106.823C250.473 106.823 251.214 106.947 251.864 107.194C252.527 107.428 253.092 107.759 253.56 108.188C254.028 108.604 254.392 109.105 254.652 109.69C254.925 110.262 255.088 110.879 255.14 111.542H253.385C253.333 111.1 253.216 110.691 253.034 110.314C252.852 109.924 252.598 109.586 252.273 109.3C251.948 109.014 251.558 108.793 251.103 108.637C250.661 108.468 250.161 108.383 249.602 108.383C249.147 108.383 248.731 108.442 248.354 108.559C247.977 108.676 247.652 108.838 247.379 109.046C247.106 109.254 246.891 109.501 246.735 109.787C246.592 110.073 246.521 110.392 246.521 110.743C246.521 111.159 246.625 111.503 246.833 111.776C247.054 112.036 247.34 112.257 247.691 112.439C248.042 112.608 248.445 112.751 248.9 112.868C249.368 112.972 249.855 113.076 250.362 113.18C250.999 113.31 251.617 113.453 252.215 113.609C252.826 113.765 253.365 113.986 253.833 114.272C254.314 114.545 254.691 114.909 254.964 115.364C255.25 115.819 255.393 116.404 255.393 117.119C255.393 117.769 255.263 118.348 255.003 118.855C254.756 119.362 254.405 119.791 253.95 120.142C253.495 120.493 252.949 120.766 252.312 120.961C251.688 121.143 251.006 121.234 250.265 121.234C249.381 121.234 248.588 121.11 247.886 120.863C247.184 120.616 246.579 120.272 246.072 119.83C245.578 119.375 245.188 118.842 244.902 118.231C244.616 117.607 244.46 116.924 244.434 116.183ZM256.614 117.256V110.489H258.291V116.632C258.291 117.139 258.343 117.587 258.447 117.977C258.551 118.354 258.707 118.673 258.915 118.933C259.123 119.193 259.376 119.388 259.675 119.518C259.987 119.648 260.351 119.713 260.767 119.713C261.209 119.713 261.612 119.641 261.976 119.498C262.353 119.342 262.672 119.134 262.932 118.874C263.192 118.601 263.393 118.276 263.536 117.899C263.679 117.522 263.751 117.1 263.751 116.632V110.489H265.428V121H263.907L263.848 119.108C263.718 119.446 263.543 119.745 263.322 120.005C263.101 120.265 262.841 120.486 262.542 120.668C262.256 120.85 261.931 120.987 261.567 121.078C261.203 121.182 260.813 121.234 260.397 121.234C259.812 121.234 259.285 121.143 258.817 120.961C258.349 120.779 257.953 120.519 257.628 120.181C257.303 119.83 257.049 119.407 256.867 118.913C256.698 118.419 256.614 117.867 256.614 117.256ZM267.242 121V110.489H268.763L268.822 112.615C269.03 111.874 269.368 111.334 269.836 110.996C270.304 110.658 270.895 110.489 271.61 110.489H272.8V112.244H271.513C271.084 112.244 270.707 112.309 270.382 112.439C270.057 112.569 269.784 112.758 269.563 113.005C269.355 113.239 269.192 113.531 269.075 113.882C268.971 114.22 268.919 114.604 268.919 115.033V121H267.242ZM273.565 124.686V123.165C273.786 123.191 273.994 123.21 274.189 123.223C274.384 123.249 274.579 123.262 274.774 123.262C275.021 123.262 275.268 123.243 275.515 123.204C275.762 123.165 275.996 123.087 276.217 122.97C276.451 122.853 276.659 122.69 276.841 122.482C277.023 122.274 277.172 122.008 277.289 121.683L277.679 120.668L277.523 122.014L273.331 110.489H275.105L278.206 119.401L281.326 110.489H283.1L279.005 121.683C278.797 122.255 278.557 122.736 278.284 123.126C278.011 123.529 277.692 123.847 277.328 124.081C276.977 124.328 276.587 124.504 276.158 124.608C275.729 124.712 275.255 124.764 274.735 124.764C274.579 124.764 274.397 124.757 274.189 124.744C273.994 124.731 273.786 124.712 273.565 124.686ZM283.001 118.25C283.001 117.418 283.28 116.755 283.839 116.261C284.411 115.754 285.308 115.397 286.53 115.189L290.508 114.506V114.409C290.508 113.551 290.261 112.901 289.767 112.459C289.286 112.004 288.61 111.776 287.739 111.776C286.881 111.776 286.212 111.984 285.731 112.4C285.25 112.803 284.951 113.375 284.834 114.116H283.118C283.17 113.544 283.313 113.024 283.547 112.556C283.781 112.088 284.093 111.685 284.483 111.347C284.886 110.996 285.36 110.73 285.906 110.548C286.465 110.353 287.089 110.256 287.778 110.256C289.195 110.256 290.287 110.639 291.054 111.406C291.834 112.16 292.224 113.206 292.224 114.545V121H290.703L290.645 119.323C290.489 119.596 290.274 119.849 290.001 120.083C289.741 120.317 289.429 120.519 289.065 120.688C288.714 120.857 288.324 120.987 287.895 121.078C287.466 121.182 287.024 121.234 286.569 121.234C286.049 121.234 285.568 121.169 285.126 121.039C284.684 120.909 284.307 120.72 283.995 120.473C283.683 120.213 283.436 119.901 283.254 119.537C283.085 119.16 283.001 118.731 283.001 118.25ZM284.756 118.172C284.756 118.718 284.957 119.121 285.36 119.381C285.776 119.641 286.309 119.771 286.959 119.771C287.505 119.771 287.993 119.693 288.422 119.537C288.864 119.381 289.234 119.167 289.533 118.894C289.845 118.608 290.086 118.276 290.255 117.899C290.424 117.522 290.508 117.113 290.508 116.671V115.91L286.764 116.573C285.997 116.703 285.471 116.898 285.185 117.158C284.899 117.418 284.756 117.756 284.756 118.172ZM295.744 121L292.488 110.489H294.243L296.797 119.284L299.332 110.489H301.282L303.856 119.284L306.391 110.489H308.146L304.909 121H302.823L300.307 112.673L297.831 121H295.744ZM308.252 118.25C308.252 117.418 308.531 116.755 309.09 116.261C309.662 115.754 310.559 115.397 311.781 115.189L315.759 114.506V114.409C315.759 113.551 315.512 112.901 315.018 112.459C314.537 112.004 313.861 111.776 312.99 111.776C312.132 111.776 311.463 111.984 310.982 112.4C310.501 112.803 310.202 113.375 310.085 114.116H308.369C308.421 113.544 308.564 113.024 308.798 112.556C309.032 112.088 309.344 111.685 309.734 111.347C310.137 110.996 310.611 110.73 311.157 110.548C311.716 110.353 312.34 110.256 313.029 110.256C314.446 110.256 315.538 110.639 316.305 111.406C317.085 112.16 317.475 113.206 317.475 114.545V121H315.954L315.896 119.323C315.74 119.596 315.525 119.849 315.252 120.083C314.992 120.317 314.68 120.519 314.316 120.688C313.965 120.857 313.575 120.987 313.146 121.078C312.717 121.182 312.275 121.234 311.82 121.234C311.3 121.234 310.819 121.169 310.377 121.039C309.935 120.909 309.558 120.72 309.246 120.473C308.934 120.213 308.687 119.901 308.505 119.537C308.336 119.16 308.252 118.731 308.252 118.25ZM310.007 118.172C310.007 118.718 310.208 119.121 310.611 119.381C311.027 119.641 311.56 119.771 312.21 119.771C312.756 119.771 313.244 119.693 313.673 119.537C314.115 119.381 314.485 119.167 314.784 118.894C315.096 118.608 315.337 118.276 315.506 117.899C315.675 117.522 315.759 117.113 315.759 116.671V115.91L312.015 116.573C311.248 116.703 310.722 116.898 310.436 117.158C310.15 117.418 310.007 117.756 310.007 118.172ZM319.21 121V110.489H320.731L320.79 112.381C320.92 112.043 321.095 111.744 321.316 111.484C321.537 111.224 321.791 111.003 322.077 110.821C322.376 110.639 322.707 110.502 323.071 110.411C323.435 110.307 323.825 110.256 324.241 110.256C324.826 110.256 325.353 110.347 325.821 110.528C326.289 110.71 326.685 110.977 327.01 111.328C327.335 111.666 327.582 112.082 327.751 112.576C327.933 113.07 328.024 113.622 328.024 114.233V121H326.347V114.857C326.347 114.35 326.295 113.908 326.191 113.531C326.087 113.141 325.931 112.816 325.723 112.556C325.515 112.296 325.255 112.101 324.943 111.971C324.644 111.841 324.287 111.776 323.871 111.776C323.429 111.776 323.019 111.854 322.642 112.01C322.278 112.153 321.966 112.361 321.706 112.634C321.446 112.894 321.245 113.213 321.102 113.59C320.959 113.967 320.887 114.389 320.887 114.857V121H319.21ZM329.117 117.568H330.833C330.885 118.218 331.158 118.738 331.652 119.128C332.146 119.518 332.887 119.713 333.875 119.713C334.239 119.713 334.577 119.687 334.889 119.635C335.201 119.57 335.474 119.472 335.708 119.342C335.942 119.212 336.124 119.05 336.254 118.855C336.397 118.647 336.468 118.4 336.468 118.114C336.468 117.815 336.39 117.574 336.234 117.392C336.091 117.197 335.883 117.041 335.61 116.924C335.35 116.794 335.032 116.697 334.655 116.632C334.291 116.554 333.894 116.482 333.465 116.417C332.984 116.339 332.497 116.248 332.003 116.144C331.522 116.027 331.086 115.865 330.696 115.657C330.306 115.449 329.988 115.169 329.741 114.818C329.507 114.467 329.39 114.012 329.39 113.453C329.39 112.972 329.481 112.537 329.663 112.147C329.858 111.757 330.131 111.425 330.482 111.153C330.833 110.866 331.262 110.645 331.769 110.489C332.276 110.333 332.848 110.256 333.485 110.256C334.174 110.256 334.785 110.347 335.318 110.528C335.864 110.71 336.325 110.957 336.702 111.269C337.079 111.581 337.378 111.952 337.599 112.381C337.82 112.797 337.957 113.252 338.009 113.746H336.293C336.215 113.135 335.929 112.654 335.435 112.303C334.941 111.952 334.284 111.776 333.465 111.776C333.075 111.776 332.731 111.815 332.432 111.893C332.146 111.971 331.905 112.082 331.71 112.225C331.515 112.355 331.366 112.511 331.262 112.693C331.158 112.875 331.106 113.076 331.106 113.297C331.106 113.583 331.184 113.817 331.34 113.999C331.496 114.181 331.71 114.331 331.983 114.448C332.256 114.565 332.568 114.662 332.919 114.74C333.27 114.818 333.634 114.89 334.011 114.955C334.544 115.046 335.058 115.15 335.552 115.267C336.059 115.384 336.507 115.553 336.897 115.774C337.287 115.982 337.599 116.268 337.833 116.632C338.067 116.983 338.184 117.451 338.184 118.036C338.184 118.582 338.074 119.056 337.853 119.459C337.632 119.849 337.326 120.181 336.936 120.454C336.546 120.714 336.085 120.909 335.552 121.039C335.032 121.169 334.473 121.234 333.875 121.234C333.147 121.234 332.49 121.143 331.905 120.961C331.333 120.779 330.839 120.525 330.423 120.2C330.02 119.875 329.708 119.492 329.487 119.05C329.266 118.595 329.143 118.101 329.117 117.568ZM339.491 121V106.667H341.168V112.147C341.311 111.848 341.493 111.581 341.714 111.347C341.935 111.113 342.188 110.918 342.474 110.762C342.76 110.593 343.072 110.47 343.41 110.392C343.761 110.301 344.132 110.256 344.522 110.256C345.107 110.256 345.633 110.347 346.101 110.528C346.569 110.71 346.966 110.977 347.291 111.328C347.616 111.666 347.863 112.082 348.032 112.576C348.214 113.07 348.305 113.622 348.305 114.233V121H346.628V114.857C346.628 114.35 346.576 113.908 346.472 113.531C346.368 113.141 346.212 112.816 346.004 112.556C345.796 112.296 345.536 112.101 345.224 111.971C344.925 111.841 344.567 111.776 344.151 111.776C343.709 111.776 343.3 111.854 342.923 112.01C342.559 112.153 342.247 112.361 341.987 112.634C341.727 112.894 341.525 113.213 341.382 113.59C341.239 113.967 341.168 114.389 341.168 114.857V121H339.491ZM350.1 121V110.489H351.738V121H350.1ZM350.022 108.949V106.804H351.816V108.949H350.022Z" fill="#001E30"/>
</svg>
